<svg width="63" height="62" viewBox="0 0 63 62" fill="none" xmlns="http://www.w3.org/2000/svg">
<path d="M8.33715 41.292C8.54681 41.7611 8.5615 42.2944 8.37801 42.7744C8.19452 43.2543 7.82787 43.6418 7.35872 43.8514C6.88956 44.0611 6.35634 44.0758 5.87636 43.8923C5.39637 43.7088 5.00893 43.3421 4.79928 42.873C2.41892 37.494 1.71673 31.522 2.78449 25.7376C3.85226 19.9532 6.64031 14.6255 10.7842 10.4509C15.9127 5.319 22.7764 2.29262 30.0243 1.96739C37.2722 1.64216 44.3794 4.04164 49.9469 8.69356V7.70931C49.9469 7.19545 50.151 6.70264 50.5144 6.33929C50.8777 5.97594 51.3705 5.77181 51.8844 5.77181C52.3983 5.77181 52.8911 5.97594 53.2544 6.33929C53.6178 6.70264 53.8219 7.19545 53.8219 7.70931V13.1905C53.8219 13.7044 53.6178 14.1972 53.2544 14.5605C52.8911 14.9239 52.3983 15.128 51.8844 15.128H46.4032C45.8894 15.128 45.3965 14.9239 45.0332 14.5605C44.6698 14.1972 44.4657 13.7044 44.4657 13.1905C44.4657 12.6766 44.6698 12.1838 45.0332 11.8205C45.3965 11.4571 45.8894 11.253 46.4032 11.253H46.9457C42.1073 7.41941 36.0284 5.49846 29.8657 5.85572C23.7031 6.21298 17.8868 8.8235 13.5238 13.1905C9.93193 16.8087 7.51532 21.4265 6.58995 26.4401C5.66458 31.4538 6.27352 36.63 8.33715 41.292ZM58.0534 19.5552C57.9575 19.3152 57.8146 19.0968 57.6331 18.9129C57.4515 18.729 57.235 18.5833 56.9963 18.4843C56.7576 18.3853 56.5015 18.3351 56.2431 18.3366C55.9846 18.3381 55.7291 18.3913 55.4916 18.493C55.254 18.5947 55.0392 18.7429 54.8598 18.9289C54.6804 19.1149 54.54 19.3349 54.4469 19.5759C54.3537 19.817 54.3098 20.0743 54.3176 20.3326C54.3254 20.5909 54.3848 20.845 54.4923 21.08C56.6933 26.2284 57.116 31.9635 55.6938 37.379C54.2715 42.7946 51.0853 47.5818 46.6385 50.9844C42.1918 54.3869 36.7381 56.2108 31.139 56.1678C25.54 56.1248 20.1149 54.2174 15.721 50.747H16.2635C16.7773 50.747 17.2701 50.5429 17.6335 50.1795C17.9968 49.8162 18.201 49.3234 18.201 48.8095C18.201 48.2956 17.9968 47.8028 17.6335 47.4395C17.2701 47.0761 16.7773 46.872 16.2635 46.872H10.7842C10.2704 46.872 9.77755 47.0761 9.4142 47.4395C9.05084 47.8028 8.84672 48.2956 8.84672 48.8095V54.2907C8.84672 54.8045 9.05084 55.2974 9.4142 55.6607C9.77755 56.0241 10.2704 56.2282 10.7842 56.2282C11.2981 56.2282 11.7909 56.0241 12.1542 55.6607C12.5176 55.2974 12.7217 54.8045 12.7217 54.2907V53.3084C17.735 57.4893 24.01 59.8606 30.5354 60.0403C37.0608 60.22 43.4567 58.1975 48.6925 54.2988C53.9283 50.4001 57.6991 44.8522 59.3972 38.549C61.0954 32.2459 60.622 25.5546 58.0534 19.5532V19.5552ZM19.1271 36.1034C25.8463 34.2298 29.3958 31.124 29.3958 27.125C29.407 26.1042 29.2142 25.0914 28.8286 24.1461C28.4431 23.2007 27.8727 22.3419 27.1508 21.6201C26.4289 20.8982 25.5701 20.3277 24.6248 19.9422C23.6795 19.5567 22.6667 19.3638 21.6458 19.375C19.5904 19.375 17.6192 20.1915 16.1658 21.6449C14.7124 23.0983 13.8958 25.0696 13.8958 27.125C13.8958 27.6389 14.1 28.1317 14.4633 28.495C14.8267 28.8584 15.3195 29.0625 15.8333 29.0625C16.3472 29.0625 16.84 28.8584 17.2034 28.495C17.5667 28.1317 17.7708 27.6389 17.7708 27.125C17.7708 26.0973 18.1791 25.1117 18.9058 24.385C19.6325 23.6583 20.6181 23.25 21.6458 23.25C22.1579 23.2383 22.667 23.3306 23.1424 23.5212C23.6178 23.7118 24.0497 23.9968 24.4118 24.359C24.774 24.7212 25.059 25.153 25.2496 25.6284C25.4402 26.1038 25.5325 26.6129 25.5208 27.125C25.5208 29.1109 22.7425 31.0736 18.0905 32.3717C16.8796 32.719 15.8149 33.4517 15.0579 34.4587C14.3009 35.4656 13.893 36.692 13.8958 37.9517V40.6875C13.8958 41.2014 14.1 41.6942 14.4633 42.0575C14.8267 42.4209 15.3195 42.625 15.8333 42.625H27.4583C27.9722 42.625 28.465 42.4209 28.8284 42.0575C29.1917 41.6942 29.3958 41.2014 29.3958 40.6875C29.3958 40.1736 29.1917 39.6808 28.8284 39.3175C28.465 38.9541 27.9722 38.75 27.4583 38.75H17.7708V37.9517C17.7659 37.5382 17.8955 37.1343 18.1401 36.8009C18.3847 36.4675 18.7311 36.2227 19.1271 36.1034ZM46.8333 42.625C47.3472 42.625 47.84 42.4209 48.2034 42.0575C48.5667 41.6942 48.7708 41.2014 48.7708 40.6875V21.3125C48.7708 20.7986 48.5667 20.3058 48.2034 19.9425C47.84 19.5791 47.3472 19.375 46.8333 19.375C46.3195 19.375 45.8267 19.5791 45.4633 19.9425C45.1 20.3058 44.8958 20.7986 44.8958 21.3125V29.0625H39.0833C38.5695 29.0625 38.0767 28.8584 37.7133 28.495C37.35 28.1317 37.1458 27.6389 37.1458 27.125V21.3125C37.1458 20.7986 36.9417 20.3058 36.5784 19.9425C36.215 19.5791 35.7222 19.375 35.2083 19.375C34.6945 19.375 34.2017 19.5791 33.8383 19.9425C33.475 20.3058 33.2708 20.7986 33.2708 21.3125V27.125C33.2708 28.6666 33.8832 30.145 34.9733 31.2351C36.0633 32.3251 37.5418 32.9375 39.0833 32.9375H44.8958V40.6875C44.8958 41.2014 45.1 41.6942 45.4633 42.0575C45.8267 42.4209 46.3195 42.625 46.8333 42.625Z" fill="white"/>
</svg>
