<svg width="62" height="62" viewBox="0 0 62 62" fill="none" xmlns="http://www.w3.org/2000/svg">
<path d="M58.3852 57.1744H5.84259C5.12814 57.1744 4.41368 57.1563 3.69923 57.1744H3.60841L4.81935 58.3854V5.84278C4.81935 5.12833 4.83146 4.41388 4.81935 3.69942V3.6086C4.81935 2.97286 4.26232 2.36739 3.60841 2.39767C2.9545 2.42794 2.39747 2.93048 2.39747 3.6086V56.1512C2.39747 56.8656 2.38536 57.5801 2.39747 58.2945V58.3854C2.39747 59.0393 2.9545 59.5963 3.60841 59.5963H56.151C56.8654 59.5963 57.5799 59.6084 58.2943 59.5963H58.3852C59.0209 59.5963 59.6264 59.0393 59.5961 58.3854C59.5658 57.7314 59.0633 57.1744 58.3852 57.1744Z" fill="white"/>
<path d="M18.5394 26.7617V45.5312C18.5394 45.9914 18.164 46.3607 17.7099 46.3607H11.1103C10.6501 46.3607 10.2808 45.9853 10.2808 45.5312V26.7617C10.2808 26.3016 10.6562 25.9322 11.1103 25.9322H17.7099C18.164 25.9322 18.5394 26.3016 18.5394 26.7617Z" fill="white"/>
<path d="M17.9339 26.7617V43.9328C17.9339 44.4293 17.9399 44.9318 17.9339 45.4283C17.9339 45.616 17.8975 45.7311 17.7038 45.7553C17.4858 45.7795 17.2497 45.7553 17.0317 45.7553H11.9215C11.6612 45.7553 11.3827 45.7795 11.1223 45.7553C10.9407 45.7371 10.8862 45.6402 10.8801 45.4586C10.8741 45.2951 10.8801 45.1316 10.8801 44.9682V27.0705C10.8801 26.9736 10.868 26.8646 10.8801 26.7617C10.9104 26.5256 11.0799 26.5316 11.304 26.5316H17.4374C17.6674 26.5377 17.9217 26.5014 17.9339 26.7617C17.9702 27.5367 19.1811 27.5428 19.1448 26.7617C19.1024 25.9201 18.4727 25.3328 17.6372 25.3268C17.286 25.3207 16.9348 25.3268 16.5837 25.3268H11.4311C10.9528 25.3268 10.4926 25.3691 10.1173 25.7203C9.60866 26.1986 9.66921 26.8404 9.66921 27.4641V41.0387C9.66921 42.516 9.65104 43.9934 9.66921 45.4647C9.67526 46.0398 9.95983 46.5787 10.4926 46.827C10.8438 46.9904 11.2071 46.9662 11.5825 46.9662H15.0639C15.9358 46.9662 16.8137 46.9965 17.6856 46.9662C18.4969 46.942 19.1145 46.3365 19.1387 45.5252C19.1448 45.4102 19.1387 45.2951 19.1387 45.1861V26.7617C19.1448 25.9807 17.9339 25.9807 17.9339 26.7617Z" fill="white"/>
<path d="M15.6152 25.9322V20.483C15.6152 19.8473 15.0582 19.2418 14.4043 19.2721C13.7504 19.3023 13.1934 19.8049 13.1934 20.483V25.9322C13.1934 26.568 13.7504 27.1734 14.4043 27.1432C15.0643 27.1129 15.6152 26.6103 15.6152 25.9322ZM15.6152 51.81V46.3607C15.6152 45.725 15.0582 45.1195 14.4043 45.1498C13.7504 45.1801 13.1934 45.6826 13.1934 46.3607V51.81C13.1934 52.4457 13.7504 53.0512 14.4043 53.0209C15.0643 52.9967 15.6152 52.4941 15.6152 51.81ZM35.741 13.6836V32.4531C35.741 32.9133 35.3656 33.2826 34.9115 33.2826H28.3119C27.8518 33.2826 27.4824 32.9072 27.4824 32.4531V13.6836C27.4824 13.2234 27.8578 12.8541 28.3119 12.8541H34.9115C35.3656 12.8541 35.741 13.2234 35.741 13.6836Z" fill="white"/>
<path d="M35.1355 13.6836V30.8547C35.1355 31.3512 35.1416 31.8537 35.1355 32.3502C35.1355 32.5379 35.0992 32.6529 34.9054 32.6772C34.6875 32.7014 34.4513 32.6772 34.2334 32.6772H29.1232C28.8629 32.6772 28.5843 32.7014 28.324 32.6772C28.1424 32.659 28.0879 32.5621 28.0818 32.3805C28.0757 32.217 28.0818 32.0535 28.0818 31.89V13.9924C28.0818 13.8955 28.0697 13.7865 28.0818 13.6836C28.1121 13.4475 28.2816 13.4535 28.5056 13.4535H34.639C34.8691 13.4596 35.1173 13.4232 35.1355 13.6836C35.1718 14.4586 36.3828 14.4646 36.3465 13.6836C36.3041 12.842 35.6744 12.2547 34.8388 12.2486C34.4877 12.2426 34.1365 12.2486 33.7853 12.2486H28.6328C28.1545 12.2486 27.6943 12.291 27.3189 12.6422C26.8103 13.1205 26.8709 13.7623 26.8709 14.3859V27.9605C26.8709 29.4379 26.8527 30.9152 26.8709 32.3865C26.8769 32.9617 27.1615 33.5006 27.6943 33.7488C28.0455 33.9123 28.4088 33.8881 28.7841 33.8881H32.2656C33.1375 33.8881 34.0154 33.9184 34.8873 33.8881C35.6986 33.8639 36.3162 33.2584 36.3404 32.4471C36.3465 32.332 36.3404 32.217 36.3404 32.108V13.6836C36.3465 12.9025 35.1355 12.9025 35.1355 13.6836Z" fill="white"/>
<path d="M32.8164 12.8541V7.4049C32.8164 6.76916 32.2594 6.16369 31.6055 6.19396C30.9516 6.22423 30.3945 6.72677 30.3945 7.4049V12.8541C30.3945 13.4899 30.9516 14.0953 31.6055 14.0651C32.2594 14.0348 32.8164 13.5322 32.8164 12.8541ZM32.8164 38.7319V33.2826C32.8164 32.6469 32.2594 32.0414 31.6055 32.0717C30.9516 32.102 30.3945 32.6045 30.3945 33.2826V38.7319C30.3945 39.3676 30.9516 39.9731 31.6055 39.9428C32.2594 39.9186 32.8164 39.416 32.8164 38.7319ZM52.9361 17.9824V36.752C52.9361 37.2121 52.5607 37.5815 52.1066 37.5815H45.507C45.0469 37.5815 44.6775 37.2061 44.6775 36.752V17.9824C44.6775 17.5223 45.0529 17.1529 45.507 17.1529H52.1066C52.5668 17.1529 52.9361 17.5223 52.9361 17.9824Z" fill="white"/>
<path d="M52.3308 17.9824V35.1535C52.3308 35.65 52.3369 36.1525 52.3308 36.649C52.3308 36.8367 52.2945 36.9518 52.1007 36.976C51.8828 37.0002 51.6466 36.976 51.4287 36.976H46.3185C46.0582 36.976 45.7797 37.0002 45.5193 36.976C45.3377 36.9578 45.2832 36.8609 45.2771 36.6793C45.2711 36.5158 45.2771 36.3523 45.2771 36.1889V18.2912C45.2771 18.1943 45.265 18.0854 45.2771 17.9824C45.3074 17.7463 45.4769 17.7523 45.7009 17.7523H51.8343C52.0644 17.7584 52.3187 17.7221 52.3308 17.9824C52.3672 18.7574 53.5781 18.7635 53.5418 17.9824C53.4994 17.1408 52.8697 16.5535 52.0341 16.5475C51.683 16.5414 51.3318 16.5475 50.9806 16.5475H45.8281C45.3498 16.5475 44.8896 16.5898 44.5142 16.941C44.0056 17.4193 44.0662 18.0611 44.0662 18.6848V32.2594C44.0662 33.7367 44.048 35.2141 44.0662 36.6854C44.0722 37.2605 44.3568 37.7994 44.8896 38.0477C45.2408 38.2111 45.6041 38.1869 45.9795 38.1869H49.4609C50.3328 38.1869 51.2107 38.2172 52.0826 38.1869C52.8939 38.1627 53.5115 37.5572 53.5357 36.7459C53.5418 36.6309 53.5357 36.5158 53.5357 36.4068V17.9824C53.5418 17.2014 52.3308 17.2014 52.3308 17.9824Z" fill="white"/>
<path d="M50.0176 17.1529V11.7037C50.0176 11.068 49.4605 10.4625 48.8066 10.4928C48.1527 10.5231 47.5957 11.0256 47.5957 11.7037V17.1529C47.5957 17.7887 48.1527 18.3942 48.8066 18.3639C49.4605 18.3336 50.0176 17.8311 50.0176 17.1529ZM50.0176 43.0307V37.5815C50.0176 36.9457 49.4605 36.3403 48.8066 36.3705C48.1527 36.4008 47.5957 36.9033 47.5957 37.5815V43.0307C47.5957 43.6664 48.1527 44.2719 48.8066 44.2416C49.4605 44.2174 50.0176 43.7149 50.0176 43.0307Z" fill="white"/>
</svg>
