<svg width="114" height="113" viewBox="0 0 114 113" fill="none" xmlns="http://www.w3.org/2000/svg">
<path d="M109.067 73.1786L111.848 57.4101L101.097 55.5185C101.066 50.5882 100.21 45.698 98.5621 41.051L108.005 35.6005L99.9977 21.7087L90.5396 27.1742C87.3528 23.4242 83.5623 20.2326 79.3245 17.731L83.0628 7.47298L68.0196 2L64.2813 12.2506C59.4206 11.4331 54.4576 11.4331 49.5969 12.2506L45.8586 2L30.7929 7.50287L34.5313 17.7609C30.2962 20.2664 26.5063 23.4575 23.3162 27.2041L13.7983 21.7087L5.79819 35.578L15.2936 41.051C13.6476 45.6986 12.7885 50.5882 12.7516 55.5185L2 57.4101L4.78135 73.1786L15.5179 71.2869C17.2457 75.9038 19.7322 80.1997 22.8751 83.9974L15.8619 92.3564L28.1237 102.644L35.1369 94.2854C39.4244 96.7183 44.09 98.4142 48.939 99.3023V110.218H64.9467V99.3023C69.7957 98.4142 74.4612 96.7183 78.7487 94.2854L85.7619 102.644L98.0238 92.3564L91.0106 83.9974C94.1533 80.2009 96.6376 75.9046 98.3602 71.2869L109.067 73.1786Z" stroke="url(#paint0_linear_187_14173)" stroke-opacity="0.6" stroke-width="3.73837" stroke-linecap="round" stroke-linejoin="round"/>
<path d="M56.9092 80.4385C70.3377 80.4385 81.2236 69.5526 81.2236 56.1242C81.2236 42.6957 70.3377 31.8098 56.9092 31.8098C43.4808 31.8098 32.5948 42.6957 32.5948 56.1242C32.5948 69.5526 43.4808 80.4385 56.9092 80.4385Z" fill="#87891F" fill-opacity="0.1"/>
<path d="M57.784 68.4756V73.7318" stroke="#3E3B21" stroke-width="3.73837" stroke-linecap="round" stroke-linejoin="round"/>
<path d="M57.784 38.5162V43.7724" stroke="#3E3B21" stroke-width="3.73837" stroke-linecap="round" stroke-linejoin="round"/>
<path d="M52.0568 38.5162V73.7317" stroke="#3E3B21" stroke-width="3.73837" stroke-linecap="round" stroke-linejoin="round"/>
<path d="M47.2866 43.7726H59.4064C61.0364 43.7726 62.5996 44.4201 63.7522 45.5727C64.9048 46.7253 65.5523 48.2885 65.5523 49.9184V49.9783C65.5464 51.6044 64.8962 53.1618 63.7443 54.3096C62.5924 55.4573 61.0325 56.1017 59.4064 56.1017H52.0269" stroke="#3E3B21" stroke-width="3.73837" stroke-linecap="round" stroke-linejoin="round"/>
<path d="M52.0568 56.1016H59.4064C61.0364 56.1016 62.5996 56.7491 63.7522 57.9017C64.9048 59.0542 65.5523 60.6174 65.5523 62.2474V62.3072C65.5523 63.9372 64.9048 65.5005 63.7522 66.6531C62.5996 67.8056 61.0364 68.4532 59.4064 68.4532H47.2866" stroke="#3E3B21" stroke-width="3.73837" stroke-linecap="round" stroke-linejoin="round"/>
<path d="M83.2872 40.6098C87.0547 47.0153 88.3614 54.5732 86.9632 61.8718C85.565 69.1704 81.5575 75.7103 75.6895 80.2699C69.8214 84.8295 62.4941 87.0969 55.0763 86.6484C47.6586 86.2 40.6578 83.0664 35.3817 77.8332C30.1057 72.5999 26.9153 65.6248 26.4065 58.2109C25.8978 50.7971 28.1054 43.4515 32.6171 37.5466C37.1288 31.6416 43.6359 27.5811 50.9229 26.1236C58.2099 24.6661 65.7782 25.9112 72.2141 29.6265" stroke="url(#paint1_linear_187_14173)" stroke-opacity="0.6" stroke-width="3.73837" stroke-linecap="round" stroke-linejoin="round"/>
<defs>
<linearGradient id="paint0_linear_187_14173" x1="90.8479" y1="13.538" x2="14.0692" y2="91.4731" gradientUnits="userSpaceOnUse">
<stop stop-color="#3A3432"/>
<stop offset="1" stop-color="#282D30"/>
</linearGradient>
<linearGradient id="paint1_linear_187_14173" x1="75.8143" y1="32.0517" x2="32.4072" y2="75.4589" gradientUnits="userSpaceOnUse">
<stop stop-color="#3A3432"/>
<stop offset="1" stop-color="#282D30"/>
</linearGradient>
</defs>
</svg>
