<svg width="17" height="16" viewBox="0 0 17 16" fill="none" xmlns="http://www.w3.org/2000/svg">
<path d="M7.30469 1.32422C6.95312 1.67578 6.98828 2.20312 7.30469 2.55469L11.5586 6.5625H1.46875C0.976562 6.5625 0.625 6.94922 0.625 7.40625V8.53125C0.625 9.02344 0.976562 9.375 1.46875 9.375H11.5586L7.30469 13.418C6.98828 13.7695 6.98828 14.2969 7.30469 14.6484L8.07812 15.4219C8.42969 15.7383 8.95703 15.7383 9.27344 15.4219L16.1289 8.56641C16.4453 8.25 16.4453 7.72266 16.1289 7.37109L9.27344 0.550781C8.95703 0.234375 8.42969 0.234375 8.07812 0.550781L7.30469 1.32422Z" fill="white"/>
</svg>
