<svg width="63" height="50" viewBox="0 0 63 50" fill="none" xmlns="http://www.w3.org/2000/svg">
<path d="M39.9047 31.0154L39.4517 30.5624L50.1557 19.858L50.6087 20.311L39.9047 31.0154Z" fill="white" stroke="white"/>
<path d="M40.8884 23.8659C39.4698 23.8659 38.3155 22.7117 38.3155 21.293C38.3155 19.8744 39.4698 18.7201 40.8884 18.7201C42.307 18.7201 43.4613 19.8744 43.4613 21.293C43.4613 22.7116 42.3063 23.8659 40.8884 23.8659ZM40.8884 19.3616C39.8223 19.3616 38.9561 20.2277 38.9561 21.2938C38.9561 22.36 39.8223 23.2261 40.8884 23.2261C41.9545 23.2261 42.8207 22.36 42.8207 21.2938C42.8207 20.2276 41.9535 19.3616 40.8884 19.3616ZM49.1736 32.1519C47.7557 32.1519 46.6007 30.9975 46.6007 29.579C46.6007 28.1604 47.7549 27.0061 49.1736 27.0061C50.5922 27.0061 51.7465 28.1604 51.7465 29.579C51.7465 30.9976 50.5922 32.1519 49.1736 32.1519ZM49.1736 27.6467C48.1074 27.6467 47.2413 28.5129 47.2413 29.579C47.2413 30.6451 48.1074 31.5113 49.1736 31.5113C50.2397 31.5113 51.1058 30.6451 51.1058 29.579C51.1058 28.5129 50.2397 27.6467 49.1736 27.6467ZM19.484 22.7117H17.1198C15.4379 22.7117 14.0398 21.4679 13.7974 19.8522H14.4469C14.6821 21.1139 15.7906 22.0711 17.1198 22.0711H19.484C20.984 22.0711 22.2029 20.8522 22.2029 19.3522V19.1832C22.2029 17.6831 20.984 16.4642 19.484 16.4642H17.1198C15.2681 16.4642 13.7603 14.9564 13.7603 13.1047V12.9357C13.7603 11.0839 15.2681 9.57611 17.1198 9.57611H19.484C21.1659 9.57611 22.564 10.82 22.8064 12.4357H22.1569C21.9217 11.1739 20.8132 10.2167 19.484 10.2167H17.1198C15.6198 10.2167 14.4009 11.4356 14.4009 12.9357V13.1047C14.4009 14.6047 15.6198 15.8236 17.1198 15.8236H19.484C21.3357 15.8236 22.8435 17.3314 22.8435 19.1832V19.3522C22.8435 21.2047 21.3365 22.7117 19.484 22.7117Z" fill="white" stroke="white"/>
<path d="M17.9814 24.7699V22.8914H18.6221V24.7699H17.9814Z" fill="white" stroke="white"/>
<path d="M17.9814 9.39639V7.51791H18.6221V9.39639H17.9814Z" fill="white" stroke="white"/>
<path d="M47.0951 49.3911L47.0951 49.3911C46.9752 49.3414 46.8975 49.2253 46.8975 49.095V41.4965V40.9965H46.3975H30.4457C28.9094 40.9965 27.6587 39.7467 27.6587 38.2111V12.6928C27.6587 11.1405 28.9229 9.87631 30.4752 9.87631H59.5857C61.138 9.87631 62.4022 11.1405 62.4022 12.6928V38.18C62.4022 39.7323 61.138 40.9965 59.5857 40.9965H55.9755H55.7683L55.6219 41.1429L47.4434 49.3223C47.3831 49.3825 47.3015 49.4154 47.217 49.4154C47.1757 49.4154 47.1342 49.4073 47.0951 49.3911ZM47.5373 47.1148V48.3219L48.3908 47.4684L55.4094 40.4498C55.4699 40.3893 55.551 40.3559 55.6358 40.3559H59.5865C60.7861 40.3559 61.7624 39.3808 61.7624 38.18V12.6928C61.7624 11.4932 60.7873 10.5169 59.5865 10.5169H30.4752C29.2756 10.5169 28.2993 11.492 28.2993 12.6928V38.2111C28.2993 39.394 29.2618 40.3559 30.4457 40.3559H47.217C47.3937 40.3559 47.5373 40.4995 47.5373 40.6762V47.1148Z" fill="white" stroke="white"/>
<path d="M7.59102 31.8504L7.44457 31.704H7.23746H3.74621C2.19388 31.704 0.929688 30.4398 0.929688 28.8875V3.40035C0.929688 1.84802 2.19388 0.583832 3.74621 0.583832H32.8566C34.409 0.583832 35.6732 1.84802 35.6732 3.40035V10.1966C35.6732 10.3733 35.5295 10.517 35.3529 10.517H30.4745C29.2748 10.517 28.2986 11.4921 28.2986 12.6929V31.3845C28.2986 31.5612 28.1549 31.7048 27.9783 31.7048H16.8171H16.3171V32.2048V39.8042C16.3171 39.9324 16.2398 40.0491 16.1214 40.0994C16.0794 40.116 16.0371 40.1237 15.9968 40.1237C15.9136 40.1237 15.8315 40.0909 15.7704 40.0298L7.59102 31.8504ZM3.24703 1.22446V1.2832C2.28751 1.50952 1.57113 2.37254 1.57113 3.40117V28.8883C1.57113 30.0879 2.54624 31.0642 3.74703 31.0642H7.57789C7.66347 31.0642 7.7447 31.0982 7.80336 31.1571L7.8043 31.1581L14.8237 38.1775L15.6773 39.031V37.8239V31.3853C15.6773 31.2086 15.8209 31.065 15.9976 31.065H27.1596H27.6596V30.565V12.6929C27.6596 11.1405 28.9238 9.87633 30.4761 9.87633H34.5342H35.0342V9.37633V3.40035C35.0342 2.2007 34.0591 1.22446 32.8583 1.22446H3.74703H3.24703Z" fill="white" stroke="white"/>
</svg>
