<svg width="103" height="110" viewBox="0 0 103 110" fill="none" xmlns="http://www.w3.org/2000/svg">
<g opacity="0.2" clip-path="url(#clip0_306_321)">
<path d="M51.4962 23.0717C62.4048 23.0717 71.248 17.9069 71.248 11.5358C71.248 5.16477 62.4048 0 51.4962 0C40.5876 0 31.7444 5.16477 31.7444 11.5358C31.7444 17.9069 40.5876 23.0717 51.4962 23.0717Z" fill="url(#paint0_radial_306_321)"/>
<path d="M51.4962 109.992C62.4048 109.992 71.248 104.827 71.248 98.4564C71.248 92.0853 62.4048 86.9205 51.4962 86.9205C40.5876 86.9205 31.7444 92.0853 31.7444 98.4564C31.7444 104.827 40.5876 109.992 51.4962 109.992Z" fill="url(#paint1_radial_306_321)"/>
<path d="M23.9707 39.04C29.425 29.5535 29.3896 19.279 23.8916 16.0913C18.3936 12.9036 9.51505 18.0098 4.06073 27.4964C-1.39359 36.9829 -1.35819 47.2574 4.1398 50.4451C9.63778 53.6328 18.5164 48.5266 23.9707 39.04Z" fill="url(#paint2_radial_306_321)"/>
<path d="M98.9231 82.4951C104.377 73.0085 104.345 62.7358 98.8507 59.5502C93.3565 56.3647 84.4809 61.4727 79.0265 70.9593C73.5722 80.4458 73.6046 90.7186 79.0989 93.9041C84.5932 97.0896 93.4687 91.9816 98.9231 82.4951Z" fill="url(#paint3_radial_306_321)"/>
<path d="M23.8943 93.9015C29.3923 90.7138 29.4277 80.4393 23.9734 70.9527C18.5191 61.4662 9.64047 56.3599 4.14248 59.5476C-1.3555 62.7353 -1.3909 73.0098 4.06341 82.4964C9.51773 91.9829 18.3963 97.0891 23.8943 93.9015Z" fill="url(#paint4_radial_306_321)"/>
<path d="M98.8554 50.4477C104.35 47.2621 104.382 36.9894 98.9277 27.5028C93.4734 18.0163 84.5978 12.9083 79.1035 16.0938C73.6093 19.2793 73.5769 29.5521 79.0312 39.0386C84.4855 48.5252 93.3611 53.6332 98.8554 50.4477Z" fill="url(#paint5_radial_306_321)"/>
</g>
<defs>
<radialGradient id="paint0_radial_306_321" cx="0" cy="0" r="1" gradientUnits="userSpaceOnUse" gradientTransform="translate(52.1281 10.1586) rotate(-20.229) scale(36.0251 27.6657)">
<stop stop-color="#382D21" stop-opacity="0.57"/>
<stop offset="0.385417" stop-color="#42544A" stop-opacity="0.58"/>
<stop offset="0.994792" stop-color="#E5C975" stop-opacity="0.63"/>
</radialGradient>
<radialGradient id="paint1_radial_306_321" cx="0" cy="0" r="1" gradientUnits="userSpaceOnUse" gradientTransform="translate(52.1281 97.0791) rotate(-20.229) scale(36.0251 27.6657)">
<stop stop-color="#382D21" stop-opacity="0.57"/>
<stop offset="0.385417" stop-color="#42544A" stop-opacity="0.58"/>
<stop offset="0.994792" stop-color="#E5C975" stop-opacity="0.63"/>
</radialGradient>
<radialGradient id="paint2_radial_306_321" cx="0" cy="0" r="1" gradientUnits="userSpaceOnUse" gradientTransform="translate(13.1432 32.0296) rotate(-80.2034) scale(36.156 27.5829)">
<stop stop-color="#382D21" stop-opacity="0.57"/>
<stop offset="0.385417" stop-color="#42544A" stop-opacity="0.58"/>
<stop offset="0.994792" stop-color="#E5C975" stop-opacity="0.63"/>
</radialGradient>
<radialGradient id="paint3_radial_306_321" cx="0" cy="0" r="1" gradientUnits="userSpaceOnUse" gradientTransform="translate(88.1031 75.4891) rotate(-80.1909) scale(36.1531 27.5665)">
<stop stop-color="#382D21" stop-opacity="0.57"/>
<stop offset="0.385417" stop-color="#42544A" stop-opacity="0.58"/>
<stop offset="0.994792" stop-color="#E5C975" stop-opacity="0.63"/>
</radialGradient>
<radialGradient id="paint4_radial_306_321" cx="0" cy="0" r="1" gradientUnits="userSpaceOnUse" gradientTransform="translate(13.1578 74.4892) rotate(-77.3639) scale(29.1312 34.2344)">
<stop stop-color="#382D21" stop-opacity="0.57"/>
<stop offset="0.385417" stop-color="#42544A" stop-opacity="0.58"/>
<stop offset="0.994792" stop-color="#E5C975" stop-opacity="0.63"/>
</radialGradient>
<radialGradient id="paint5_radial_306_321" cx="0" cy="0" r="1" gradientUnits="userSpaceOnUse" gradientTransform="translate(88.1187 31.0355) rotate(-77.3831) scale(29.1222 34.2219)">
<stop stop-color="#382D21" stop-opacity="0.57"/>
<stop offset="0.385417" stop-color="#42544A" stop-opacity="0.58"/>
<stop offset="0.994792" stop-color="#E5C975" stop-opacity="0.63"/>
</radialGradient>
<clipPath id="clip0_306_321">
<rect width="103" height="110" fill="white"/>
</clipPath>
</defs>
</svg>
