<svg width="196" height="212" viewBox="0 0 196 212" fill="none" xmlns="http://www.w3.org/2000/svg">
<g opacity="0.2" clip-path="url(#clip0_306_328)">
<path d="M95.011 54.9708C93.2473 54.1852 93.1847 54.073 94.0849 54.2349C95.8227 54.4466 99.5747 55.8929 102.114 57.2771C107.994 60.5569 112.589 66.0203 116.714 74.4657L117.767 76.7485L120.142 77.0474C130.307 78.2426 139.937 82.3075 147.159 88.5188C149.136 90.2151 152.128 93.3334 152.416 93.9821C152.542 94.2066 152.481 95.4168 152.333 96.6021C151.776 100.882 150.643 103.864 148.658 105.848C147.585 106.958 147.486 107.308 147.6 108.568C147.701 109.541 148.577 110.452 149.54 110.726C151.641 111.324 154.775 108.628 157.144 104.299L158.104 102.589L158.643 103.687C161.689 109.937 163.225 117.834 162.358 122.874L162.16 124.234L161.695 122.875C160.954 120.492 160.102 118.833 158.762 117.224C156.358 114.367 153.381 112.858 145.189 110.053C137.786 107.472 133.671 105.639 129.867 103.045C123.361 98.6428 120.555 94.5388 115.273 80.8538C112.927 74.8035 111.334 71.4228 109.618 68.4789C105.871 62.0296 101.453 57.9385 95.011 54.9708Z" fill="url(#paint0_radial_306_328)"/>
<path d="M157.066 84.6365C158.186 81.3675 159.245 79.3086 160.78 77.5741C161.354 76.8877 161.904 76.2887 161.991 76.3137C162.079 76.3386 161.729 76.9001 161.268 77.524C160.02 79.2461 159.162 81.9286 158.729 85.1102C158.222 89.2149 158.335 89.8138 161.318 95.2901C162.672 97.8473 164.226 101.028 164.803 102.326L165.744 104.671L164.654 102.85C163.313 100.579 160.057 96.0639 159.218 95.353C158.705 94.8291 158.618 94.8041 158.056 95.1162C157.606 95.3658 157.369 95.8649 156.648 98.3978C155.441 102.303 154.219 104.599 152.185 106.758C151.111 107.869 151.098 107.582 152.134 106.271C152.895 105.261 153.132 104.761 154.202 101.006C156.366 93.4074 156.013 91.3239 151.544 86.7463C150.454 85.5863 148.502 83.8027 147.363 82.8173C146.137 81.8071 145.235 80.9839 145.323 81.0088C145.548 80.884 150.289 83.8397 152.054 85.2865C154.77 87.3818 155.27 87.6187 155.645 87.6311C155.982 87.4439 156.356 86.795 157.066 84.6365Z" fill="url(#paint1_radial_306_328)"/>
<path d="M91.7344 80.0987C89.5007 73.9859 89.376 65.4523 91.5678 59.7501L92.2653 57.9659L93.0909 58.3899C94.5919 59.1006 97.007 60.9216 98.0961 62.0816C101.001 65.1749 101.755 68.5059 101.204 76.0915C101.044 78.3123 100.961 80.9323 100.999 81.7932C101.064 83.2279 101.856 86.7585 102.71 89.0788C103.275 90.7505 102.463 91.2747 100.324 90.4767C97.0974 89.18 93.5037 84.8517 91.7344 80.0987Z" fill="url(#paint2_radial_306_328)"/>
<path d="M138.074 134.371C122.732 122.447 118.321 114.676 121.232 104.457C121.654 102.973 122.09 101.775 122.09 101.775C122.178 101.8 122.641 102.498 123.255 103.334C125.96 107.126 129.551 109.471 140.045 114.159C146.162 116.94 149.639 118.686 152.642 120.768C162.239 127.279 166.764 136.31 165.579 146.454C165.221 149.373 163.441 154.626 161.944 157.221C160.71 159.23 157.815 162.749 157.352 162.712C157.265 162.687 157.214 162.201 157.413 161.502C158.283 157.784 157.439 153.767 155.147 150.186C152.366 145.995 148.311 142.291 138.074 134.371Z" fill="url(#paint3_radial_306_328)"/>
<path d="M124.999 133.763C125.197 132.403 125.232 130.619 125.168 129.845L125.103 128.41L125.618 129.596C126.382 131.23 126.81 133.051 126.976 135.459C127.116 137.293 126.967 137.817 126.196 140.525C125.449 143.145 125.188 143.731 124.24 145.066C122.693 147.175 121.17 148.535 118.897 149.871C114.825 152.205 110.213 152.78 104.125 151.896C103.049 151.684 99.9985 151.098 97.3227 150.525C90.658 149.005 86.0823 148.457 81.7452 148.732C81.1702 148.757 80.5953 148.782 80.5326 148.67C80.4073 148.446 83.5686 147.646 86.0555 147.222C89.5421 146.609 92.9173 146.721 100.181 147.468C103.744 147.916 107.444 148.214 108.419 148.114C117.856 147.875 124.061 142.372 124.999 133.763Z" fill="url(#paint4_radial_306_328)"/>
<path d="M128.959 150.093C128.101 144.467 128.919 139.601 131.413 135.495C131.713 135.109 132.012 134.722 132.187 134.772C132.362 134.821 132.813 135.233 133.239 135.732C134.09 136.73 135.93 138.576 140.662 143.228C146.658 149.091 149.839 153.207 151.67 157.411C153.275 161.079 153.793 164.909 153.299 169.3C153.065 171.783 151.186 177.385 149.901 179.569C145.861 186.444 139.793 191.137 132.433 192.723C131.321 192.973 130.433 193.098 130.346 193.073C130.258 193.048 130.857 192.274 131.681 191.376C135.05 187.52 136.532 183.315 136.324 178.063C136.207 174.819 135.214 170.665 132.903 163.491C130.079 155.133 129.463 152.975 128.959 150.093Z" fill="url(#paint5_radial_306_328)"/>
<path d="M56.1339 158.245C64.1537 154.675 73.2139 153.101 80.9151 153.973C84.2157 154.346 89.418 156.017 92.0828 157.625C96.3739 160.169 99.8294 163.986 101.097 167.841C102.303 171.584 102.494 174.565 101.741 180.866C101.42 183.324 101.161 185.894 101.099 186.443C100.904 189.787 101.608 192.631 102.985 194.44C105.127 197.221 109.829 198.655 114.966 198.23C115.828 198.192 116.603 198.129 116.578 198.217C116.704 198.441 113.892 199.34 112.093 199.677C109.581 200.19 107.731 200.04 105.367 199.367C101.166 198.171 98.1987 194.965 96.5538 189.775C96.1898 188.727 95.6856 185.845 95.3068 183.188C94.258 175.241 93.2794 172.696 90.362 169.316C87.7829 166.41 83.8807 164.826 80.394 165.438C75.8202 166.213 73.3021 171.067 75.2078 175.009C75.9726 176.643 77.7749 178.289 79.451 179.05C82.5654 180.409 86.0879 178.674 87.0083 175.442C87.6053 173.346 87.1657 171.899 85.3385 170.34C82.8857 168.32 79.4239 168.844 78.7403 171.577C78.417 172.712 78.7432 173.561 79.7319 174.409C80.3327 174.958 80.3327 174.958 79.8323 174.721C77.4431 173.474 77.7258 170.155 80.3112 168.719C83.4587 166.972 88.3248 169.491 89.1054 173.396C89.4077 174.993 88.6992 177.813 87.5889 179.385C85.0064 182.804 80.2325 183.616 76.2667 181.259C73.6019 179.65 72.6003 178.515 70.1188 173.937C65.7823 165.903 63.7671 164.008 55.3867 160.204L53.7982 159.469L56.1339 158.245Z" fill="url(#paint6_radial_306_328)"/>
<path fill-rule="evenodd" clip-rule="evenodd" d="M50.114 4.60312C63.47 35.129 83.9502 82.5083 84.9288 85.0532C85.7443 87.174 84.7465 88.6838 82.2099 89.2833C80.7854 89.633 78.0479 89.6087 76.8224 89.2597C75.4218 88.8608 73.9576 87.6884 73.1431 86.2289C72.5791 85.2184 70.5831 79.2678 66.2879 65.1084C63.0349 54.2675 60.2095 45.2479 60.1469 45.1356C59.8465 44.8612 59.8465 44.8613 65.103 66.9427C68.4354 80.8279 69.4049 85.7307 69.2556 86.2548C68.9322 87.3902 68.408 87.9018 66.5597 89.0751C63.45 91.0221 61.5538 93.6925 58.9999 99.6692C56.1594 106.32 52.4029 110.538 43.2996 116.915C37.9675 120.684 37.106 121.383 35.571 123.118C33.649 125.214 32.9009 126.512 31.8303 129.606C30.71 132.875 30.4631 135.071 30.5305 138.489C30.6099 141.534 31.0504 143.642 32.394 147.896C33.5118 151.614 34.0656 154.321 33.8169 155.194C33.6179 155.893 33.793 155.943 37.1432 156.142C45.1688 156.539 52.2295 155.339 56.6881 152.643C59.4357 150.971 60.3092 149.898 61.2047 146.754C61.7768 144.745 61.8136 144.283 61.6367 142.911C61.3086 140.74 60.0932 138.694 57.2007 135.227C53.3942 130.649 52.1271 127.455 52.5969 123.812C53.005 120.718 54.1023 118.859 58.2955 114.104C62.626 109.2 63.9979 107.041 66.0773 101.402C67.3846 97.8082 68.2452 96.448 69.619 95.6118C71.1052 94.7132 72.1925 94.5507 75.0056 94.9742C79.644 95.6343 82.856 95.3216 85.7538 93.7863C88.2895 92.5256 89.6872 90.9408 90.5459 88.2582L91.2055 86.2743L90.4158 84.7275C87.6449 78.8394 48.47 0.0746806 48.2074 -0.000111769C48.1198 -0.0250426 49.0478 2.03329 50.114 4.60312ZM41.6151 136.453C43.0506 135.068 43.1224 132.822 41.8452 131.325C40.6307 129.941 38.2305 129.729 37.8573 131.039C37.7578 131.389 37.8334 131.788 38.3089 132.112C38.9723 132.773 38.9355 133.235 38.0491 134.021C37.1627 134.807 36.914 135.681 37.5277 136.516C38.4795 137.826 40.292 137.776 41.6151 136.453Z" fill="url(#paint7_radial_306_328)"/>
<path fill-rule="evenodd" clip-rule="evenodd" d="M90.1513 100.61C87.8763 100.623 85.2163 102.32 83.9568 104.417C83.2086 105.714 82.6623 108.297 83.0512 109.258C83.6659 110.755 84.4417 111.353 86.8927 112.051C91.7071 113.422 96.4183 112.498 97.5773 110.09C98.612 108.118 97.5946 104.713 95.4292 102.68C94.3152 101.607 91.6763 100.572 90.1513 100.61ZM94.5098 106.572C95.5086 105.724 95.5694 104.514 94.4802 103.354C92.5396 101.196 88.6024 101.396 87.9557 103.667C87.6323 104.802 89.1223 106.549 90.873 107.047C92.011 107.371 93.7856 107.122 94.5098 106.572Z" fill="url(#paint8_radial_306_328)"/>
</g>
<defs>
<radialGradient id="paint0_radial_306_328" cx="0" cy="0" r="1" gradientUnits="userSpaceOnUse" gradientTransform="translate(129.974 86.6876) rotate(-3.95868) scale(77.5175 58.6164)">
<stop stop-color="#382D21" stop-opacity="0.57"/>
<stop offset="0.385417" stop-color="#42544A" stop-opacity="0.58"/>
<stop offset="0.994792" stop-color="#E5C975" stop-opacity="0.63"/>
</radialGradient>
<radialGradient id="paint1_radial_306_328" cx="0" cy="0" r="1" gradientUnits="userSpaceOnUse" gradientTransform="translate(156.81 89.8752) rotate(-22.5244) scale(28.5359 32.8855)">
<stop stop-color="#382D21" stop-opacity="0.57"/>
<stop offset="0.385417" stop-color="#42544A" stop-opacity="0.58"/>
<stop offset="0.994792" stop-color="#E5C975" stop-opacity="0.63"/>
</radialGradient>
<radialGradient id="paint2_radial_306_328" cx="0" cy="0" r="1" gradientUnits="userSpaceOnUse" gradientTransform="translate(98.0791 72.9384) rotate(-27.6854) scale(22.7797 26.9267)">
<stop stop-color="#382D21" stop-opacity="0.57"/>
<stop offset="0.385417" stop-color="#42544A" stop-opacity="0.58"/>
<stop offset="0.994792" stop-color="#E5C975" stop-opacity="0.63"/>
</radialGradient>
<radialGradient id="paint3_radial_306_328" cx="0" cy="0" r="1" gradientUnits="userSpaceOnUse" gradientTransform="translate(143.085 130.163) rotate(-13.6974) scale(53.5112 54.3921)">
<stop stop-color="#382D21" stop-opacity="0.57"/>
<stop offset="0.385417" stop-color="#42544A" stop-opacity="0.58"/>
<stop offset="0.994792" stop-color="#E5C975" stop-opacity="0.63"/>
</radialGradient>
<radialGradient id="paint4_radial_306_328" cx="0" cy="0" r="1" gradientUnits="userSpaceOnUse" gradientTransform="translate(106.072 137.511) rotate(-9.74295) scale(39.574 36.542)">
<stop stop-color="#382D21" stop-opacity="0.57"/>
<stop offset="0.385417" stop-color="#42544A" stop-opacity="0.58"/>
<stop offset="0.994792" stop-color="#E5C975" stop-opacity="0.63"/>
</radialGradient>
<radialGradient id="paint5_radial_306_328" cx="0" cy="0" r="1" gradientUnits="userSpaceOnUse" gradientTransform="translate(139.68 162.807) rotate(-32.9454) scale(40.5704 47.5834)">
<stop stop-color="#382D21" stop-opacity="0.57"/>
<stop offset="0.385417" stop-color="#42544A" stop-opacity="0.58"/>
<stop offset="0.994792" stop-color="#E5C975" stop-opacity="0.63"/>
</radialGradient>
<radialGradient id="paint6_radial_306_328" cx="0" cy="0" r="1" gradientUnits="userSpaceOnUse" gradientTransform="translate(88.1063 172.761) rotate(-2.42827) scale(64.002 45.216)">
<stop stop-color="#382D21" stop-opacity="0.57"/>
<stop offset="0.385417" stop-color="#42544A" stop-opacity="0.58"/>
<stop offset="0.994792" stop-color="#E5C975" stop-opacity="0.63"/>
</radialGradient>
<radialGradient id="paint7_radial_306_328" cx="0" cy="0" r="1" gradientUnits="userSpaceOnUse" gradientTransform="translate(61.9125 74.2905) rotate(-40.2824) scale(99.9145 109.357)">
<stop stop-color="#382D21" stop-opacity="0.57"/>
<stop offset="0.385417" stop-color="#42544A" stop-opacity="0.58"/>
<stop offset="0.994792" stop-color="#E5C975" stop-opacity="0.63"/>
</radialGradient>
<radialGradient id="paint8_radial_306_328" cx="0" cy="0" r="1" gradientUnits="userSpaceOnUse" gradientTransform="translate(91.2426 106.238) rotate(-11.2581) scale(14.3354 13.7796)">
<stop stop-color="#382D21" stop-opacity="0.57"/>
<stop offset="0.385417" stop-color="#42544A" stop-opacity="0.58"/>
<stop offset="0.994792" stop-color="#E5C975" stop-opacity="0.63"/>
</radialGradient>
<clipPath id="clip0_306_328">
<rect width="153.18" height="175.994" fill="white" transform="translate(48.2076) rotate(15.8974)"/>
</clipPath>
</defs>
</svg>
