<svg width="103" height="102" viewBox="0 0 103 102" fill="none" xmlns="http://www.w3.org/2000/svg">
<g opacity="0.2" clip-path="url(#clip0_306_338)">
<path d="M69.8666 83.3102C87.7571 72.9811 93.8403 50.2785 83.5112 32.388C73.1821 14.4975 50.4795 8.41439 32.589 18.7435C14.6986 29.0725 8.6154 51.7752 18.9445 69.6656C29.2735 87.5561 51.9762 93.6392 69.8666 83.3102Z" fill="url(#paint0_radial_306_338)"/>
<path d="M50.7348 49.373L50.7348 49.3731L50.7413 49.3703C53.7462 48.0816 56.0891 47.4786 57.9819 47.7212C59.8225 47.957 61.3213 49.0064 62.6239 51.2626C64.5754 54.6427 63.6261 58.7604 60.1297 61.6391L59.8027 61.9083L60.0145 62.2751L61.8523 65.4583C62.0351 66.0401 61.8624 66.3699 61.6063 66.5178L59.6337 67.6567C59.0517 67.8395 58.722 67.6668 58.5743 67.411L56.7104 64.1826L56.4955 63.8103L56.0951 63.967C53.753 64.884 51.7653 65.0399 50.0871 64.6299C48.4228 64.2234 47.0127 63.2483 45.8335 61.8072L45.7758 61.7073C45.6031 61.4082 45.6919 61.0775 45.9905 60.9051L48.2774 59.5848C48.472 59.4725 48.7777 59.4604 49.0679 59.7552C49.8978 60.6967 50.9032 61.4219 52.2055 61.6099C53.5054 61.7975 55.0111 61.4366 56.8159 60.3947C59.52 58.8334 60.7687 55.9899 59.341 53.5169C59.0079 52.9401 58.6277 52.4682 58.1572 52.1252C57.6814 51.7782 57.1387 51.5818 56.5123 51.5198C55.2942 51.3992 53.7399 51.7878 51.664 52.5384L51.6503 52.5433L51.6369 52.5491C48.6379 53.835 46.3092 54.3867 44.4499 54.1263C42.6379 53.8726 41.1908 52.834 39.9665 50.7133C38.1754 47.6111 39.0551 43.711 42.624 40.9629L42.9708 40.6959L42.752 40.3168L40.9919 37.2681C40.8088 36.6859 40.9816 36.3562 41.2377 36.2083L43.2103 35.0694C43.7921 34.8866 44.1219 35.0593 44.2698 35.3155L46.1337 38.5438L46.3629 38.9408L46.7783 38.7468C49.8052 37.3333 53.287 38.1497 55.3938 40.6037L55.4486 40.6986C55.621 40.9972 55.5326 41.328 55.2334 41.5007L53.0814 42.7431C52.8544 42.8742 52.5314 42.8488 52.3332 42.6733C51.3516 41.8028 50.3332 41.3234 49.204 41.2815C48.088 41.2401 46.9344 41.6291 45.6816 42.3524C44.279 43.1622 43.3424 44.1225 42.9247 45.1914C42.4997 46.2791 42.6411 47.4054 43.2494 48.459C43.8321 49.4684 44.5684 50.2349 45.8131 50.4319C46.9948 50.6189 48.5491 50.274 50.7348 49.373Z" stroke="url(#paint1_linear_306_338)"/>
<path d="M31.0733 32.9029L31.1557 32.813L31.1811 32.7184C31.1887 32.7096 31.2021 32.6961 31.2235 32.6785C31.2634 32.6457 31.3094 32.6159 31.3583 32.5866C31.54 32.5448 31.6802 32.5651 31.7905 32.6142C31.9161 32.6701 32.0464 32.7828 32.1605 32.9803L33.2477 34.8634C33.4083 35.1417 33.46 35.3587 33.4549 35.54C33.45 35.7148 33.3911 35.9034 33.2476 36.1268C28.8203 41.4342 26.8294 48.4387 28.0978 55.3937C30.2207 68.2554 42.5808 77.0263 55.4969 74.7267C55.6962 74.7476 55.9284 74.8121 56.1347 74.9096C56.3729 75.0222 56.5034 75.1436 56.5462 75.2176L57.6336 77.101C57.6738 77.1707 57.7023 77.2202 57.7249 77.2633C57.7455 77.3024 57.755 77.3248 57.7595 77.3374L57.7236 77.4708L57.7618 77.6043C57.8113 77.7768 57.7773 77.9171 57.7103 78.012C57.6447 78.1048 57.5206 78.1921 57.3125 78.2046L57.2744 78.2069L57.2371 78.215C48.4644 80.1086 39.5054 77.7082 32.8546 71.6823C21.6443 61.4182 20.8128 44.1104 31.0733 32.9029ZM45.5314 24.5215L45.5682 24.5193L45.6042 24.5117C54.2463 22.694 63.3397 25.0196 70.066 31.1775C81.2772 41.4415 82.1091 58.75 71.8483 69.9578L71.7659 70.0477L71.7405 70.1423C71.7329 70.1511 71.7195 70.1646 71.6981 70.1822C71.6582 70.215 71.6122 70.2448 71.5633 70.2741C71.3816 70.3159 71.2414 70.2956 71.1311 70.2465C71.0055 70.1907 70.8752 70.0779 70.7611 69.8804L69.6739 67.9973C69.5133 67.7191 69.4616 67.5021 69.4667 67.3208C69.4716 67.1459 69.5305 66.9573 69.674 66.7339C74.1013 61.4265 76.0922 54.422 74.8238 47.467C72.7009 34.6053 60.3408 25.8345 47.4248 28.134C47.2277 28.1133 47.0002 28.0489 46.7925 27.9419C46.5635 27.8239 46.3919 27.6716 46.2977 27.5085L45.2105 25.6254C45.1702 25.5556 45.1417 25.5061 45.119 25.463C45.0984 25.4236 45.0889 25.4012 45.0844 25.3887L45.1202 25.255L45.082 25.1218C45.0326 24.9493 45.0666 24.809 45.1336 24.7141C45.1992 24.6213 45.3233 24.534 45.5314 24.5215Z" stroke="url(#paint2_linear_306_338)"/>
</g>
<defs>
<radialGradient id="paint0_radial_306_338" cx="0" cy="0" r="1" gradientUnits="userSpaceOnUse" gradientTransform="translate(50.0354 46.5764) rotate(-62.2501) scale(75.4338 80.5787)">
<stop stop-color="#382D21" stop-opacity="0.57"/>
<stop offset="0.385417" stop-color="#42544A" stop-opacity="0.58"/>
<stop offset="0.994792" stop-color="#E5C975" stop-opacity="0.63"/>
</radialGradient>
<linearGradient id="paint1_linear_306_338" x1="41.9293" y1="35.2317" x2="60.6458" y2="67.6497" gradientUnits="userSpaceOnUse">
<stop stop-color="#ECE0BA"/>
<stop offset="1" stop-color="#90846B"/>
</linearGradient>
<linearGradient id="paint2_linear_306_338" x1="38.0254" y1="28.1595" x2="64.8962" y2="74.7012" gradientUnits="userSpaceOnUse">
<stop stop-color="#ECE0BA"/>
<stop offset="1" stop-color="#90846B"/>
</linearGradient>
<clipPath id="clip0_306_338">
<rect width="74.5552" height="74.5552" fill="white" transform="translate(0.305664 37.3823) rotate(-30)"/>
</clipPath>
</defs>
</svg>
