<svg width="33" height="33" viewBox="0 0 33 33" fill="none" xmlns="http://www.w3.org/2000/svg">
<g clip-path="url(#clip0_202_173)">
<path d="M0.514648 13.4073C0.377896 13.4073 0.246745 13.4617 0.150046 13.5583C0.0533477 13.655 -0.000976562 13.7862 -0.000976562 13.9229V18.0479C-0.000976562 18.1847 0.0533477 18.3158 0.150046 18.4125C0.246745 18.5092 0.377896 18.5635 0.514648 18.5635H13.9209C14.0577 18.5635 14.1888 18.5092 14.2855 18.4125C14.3822 18.3158 14.4365 18.1847 14.4365 18.0479V13.9229C14.4365 13.7862 14.3822 13.655 14.2855 13.5583C14.1888 13.4617 14.0577 13.4073 13.9209 13.4073H0.514648ZM1.03027 14.4385H13.4053V17.5323H1.03027V14.4385Z" fill="white"/>
<path fill-rule="evenodd" clip-rule="evenodd" d="M2.06152 15.4698V16.501H9.28027V15.4698H2.06152Z" fill="white"/>
<path d="M12.375 15.9844C12.375 16.1211 12.3207 16.2523 12.224 16.349C12.1273 16.4457 11.9961 16.5 11.8594 16.5C11.7226 16.5 11.5915 16.4457 11.4948 16.349C11.3981 16.2523 11.3438 16.1211 11.3438 15.9844C11.3438 15.8476 11.3981 15.7165 11.4948 15.6198C11.5915 15.5231 11.7226 15.4688 11.8594 15.4688C11.9961 15.4688 12.1273 15.5231 12.224 15.6198C12.3207 15.7165 12.375 15.8476 12.375 15.9844Z" fill="white"/>
<path d="M0.514648 19.5948C0.377896 19.5948 0.246745 19.6492 0.150046 19.7458C0.0533477 19.8425 -0.000976562 19.9737 -0.000976562 20.1104V24.2354C-0.000976562 24.3722 0.0533477 24.5033 0.150046 24.6C0.246745 24.6967 0.377896 24.751 0.514648 24.751H13.9209C14.0577 24.751 14.1888 24.6967 14.2855 24.6C14.3822 24.5033 14.4365 24.3722 14.4365 24.2354V20.1104C14.4365 19.9737 14.3822 19.8425 14.2855 19.7458C14.1888 19.6492 14.0577 19.5948 13.9209 19.5948H0.514648ZM1.03027 20.626H13.4053V23.7198H1.03027V20.626Z" fill="white"/>
<path fill-rule="evenodd" clip-rule="evenodd" d="M2.06152 21.6573V22.6885H9.28027V21.6573H2.06152Z" fill="white"/>
<path d="M12.375 22.1719C12.375 22.3086 12.3207 22.4398 12.224 22.5365C12.1273 22.6332 11.9961 22.6875 11.8594 22.6875C11.7226 22.6875 11.5915 22.6332 11.4948 22.5365C11.3981 22.4398 11.3438 22.3086 11.3438 22.1719C11.3438 22.0351 11.3981 21.904 11.4948 21.8073C11.5915 21.7106 11.7226 21.6562 11.8594 21.6562C11.9961 21.6562 12.1273 21.7106 12.224 21.8073C12.3207 21.904 12.375 22.0351 12.375 22.1719Z" fill="white"/>
<path d="M0.514648 25.7823C0.377896 25.7823 0.246745 25.8367 0.150046 25.9333C0.0533477 26.03 -0.000976562 26.1612 -0.000976562 26.2979V30.4229C-0.000976562 30.5597 0.0533477 30.6908 0.150046 30.7875C0.246745 30.8842 0.377896 30.9385 0.514648 30.9385H13.9209C14.0577 30.9385 14.1888 30.8842 14.2855 30.7875C14.3822 30.6908 14.4365 30.5597 14.4365 30.4229V26.2979C14.4365 26.1612 14.3822 26.03 14.2855 25.9333C14.1888 25.8367 14.0577 25.7823 13.9209 25.7823H0.514648ZM1.03027 26.8135H13.4053V29.9073H1.03027V26.8135Z" fill="white"/>
<path fill-rule="evenodd" clip-rule="evenodd" d="M2.06152 27.8448V28.876H9.28027V27.8448H2.06152Z" fill="white"/>
<path d="M12.375 28.3594C12.375 28.4961 12.3207 28.6273 12.224 28.724C12.1273 28.8207 11.9961 28.875 11.8594 28.875C11.7226 28.875 11.5915 28.8207 11.4948 28.724C11.3981 28.6273 11.3438 28.4961 11.3438 28.3594C11.3438 28.2226 11.3981 28.0915 11.4948 27.9948C11.5915 27.8981 11.7226 27.8438 11.8594 27.8438C11.9961 27.8438 12.1273 27.8981 12.224 27.9948C12.3207 28.0915 12.375 28.2226 12.375 28.3594Z" fill="white"/>
<path d="M19.0771 1.03229C18.9404 1.03229 18.8092 1.08665 18.7125 1.18335C18.6158 1.28005 18.5615 1.41116 18.5615 1.54791V5.67291C18.5615 5.80966 18.6158 5.94078 18.7125 6.03748C18.8092 6.13417 18.9404 6.18854 19.0771 6.18854H32.4834C32.6202 6.18854 32.7513 6.13417 32.848 6.03748C32.9447 5.94078 32.999 5.80966 32.999 5.67291V1.54791C32.999 1.41116 32.9447 1.28005 32.848 1.18335C32.7513 1.08665 32.6202 1.03229 32.4834 1.03229H19.0771ZM19.5928 2.06354H31.9678V5.15729H19.5928V2.06354Z" fill="white"/>
<path fill-rule="evenodd" clip-rule="evenodd" d="M20.624 3.09479V4.12604H27.8428V3.09479H20.624Z" fill="white"/>
<path d="M30.9375 3.60938C30.9375 3.74613 30.8832 3.87728 30.7865 3.97398C30.6898 4.07068 30.5586 4.125 30.4219 4.125C30.2851 4.125 30.154 4.07068 30.0573 3.97398C29.9606 3.87728 29.9062 3.74613 29.9062 3.60938C29.9062 3.47262 29.9606 3.34147 30.0573 3.24477C30.154 3.14807 30.2851 3.09375 30.4219 3.09375C30.5586 3.09375 30.6898 3.14807 30.7865 3.24477C30.8832 3.34147 30.9375 3.47262 30.9375 3.60938Z" fill="white"/>
<path d="M19.0771 7.21979C18.9404 7.21979 18.8092 7.27415 18.7125 7.37085C18.6158 7.46755 18.5615 7.59866 18.5615 7.73541V11.8604C18.5615 11.9972 18.6158 12.1283 18.7125 12.225C18.8092 12.3217 18.9404 12.376 19.0771 12.376H32.4834C32.6202 12.376 32.7513 12.3217 32.848 12.225C32.9447 12.1283 32.999 11.9972 32.999 11.8604V7.73541C32.999 7.59866 32.9447 7.46755 32.848 7.37085C32.7513 7.27415 32.6202 7.21979 32.4834 7.21979H19.0771ZM19.5928 8.25104H31.9678V11.3448H19.5928V8.25104Z" fill="white"/>
<path fill-rule="evenodd" clip-rule="evenodd" d="M20.624 9.28229V10.3135H27.8428V9.28229H20.624Z" fill="white"/>
<path d="M30.9375 9.79688C30.9375 9.93363 30.8832 10.0648 30.7865 10.1615C30.6898 10.2582 30.5586 10.3125 30.4219 10.3125C30.2851 10.3125 30.154 10.2582 30.0573 10.1615C29.9606 10.0648 29.9062 9.93363 29.9062 9.79688C29.9062 9.66012 29.9606 9.52897 30.0573 9.43227C30.154 9.33557 30.2851 9.28125 30.4219 9.28125C30.5586 9.28125 30.6898 9.33557 30.7865 9.43227C30.8832 9.52897 30.9375 9.66012 30.9375 9.79688Z" fill="white"/>
<path d="M19.0771 13.4073C18.9404 13.4073 18.8092 13.4617 18.7125 13.5583C18.6158 13.655 18.5615 13.7862 18.5615 13.9229V18.0479C18.5615 18.1847 18.6158 18.3158 18.7125 18.4125C18.8092 18.5092 18.9404 18.5635 19.0771 18.5635H32.4834C32.6202 18.5635 32.7513 18.5092 32.848 18.4125C32.9447 18.3158 32.999 18.1847 32.999 18.0479V13.9229C32.999 13.7862 32.9447 13.655 32.848 13.5583C32.7513 13.4617 32.6202 13.4073 32.4834 13.4073H19.0771ZM19.5928 14.4385H31.9678V17.5323H19.5928V14.4385Z" fill="white"/>
<path fill-rule="evenodd" clip-rule="evenodd" d="M20.624 15.4698V16.501H27.8428V15.4698H20.624Z" fill="white"/>
<path d="M30.9375 15.9844C30.9375 16.1211 30.8832 16.2523 30.7865 16.349C30.6898 16.4457 30.5586 16.5 30.4219 16.5C30.2851 16.5 30.154 16.4457 30.0573 16.349C29.9606 16.2523 29.9062 16.1211 29.9062 15.9844C29.9062 15.8476 29.9606 15.7165 30.0573 15.6198C30.154 15.5231 30.2851 15.4688 30.4219 15.4688C30.5586 15.4688 30.6898 15.5231 30.7865 15.6198C30.8832 15.7165 30.9375 15.8476 30.9375 15.9844Z" fill="white"/>
<path fill-rule="evenodd" clip-rule="evenodd" d="M25.7657 20.6415V27.8602H16.4845V28.8915H26.797V20.6415H25.7657Z" fill="white"/>
</g>
<defs>
<clipPath id="clip0_202_173">
<rect width="33" height="33" fill="white"/>
</clipPath>
</defs>
</svg>
