<svg width="33" height="33" viewBox="0 0 33 33" fill="none" xmlns="http://www.w3.org/2000/svg">
<g clip-path="url(#clip0_202_200)">
<path d="M2.57812 0C2.44137 0 2.31022 0.0543246 2.21352 0.151023C2.11682 0.247722 2.0625 0.378873 2.0625 0.515625V28.3594C2.0625 28.4961 2.11682 28.6273 2.21352 28.724C2.31022 28.8207 2.44137 28.875 2.57812 28.875H18.0469C18.1836 28.875 18.3148 28.8207 18.4115 28.724C18.5082 28.6273 18.5625 28.4961 18.5625 28.3594V28.182C19.6381 28.6564 20.5064 28.8626 20.5064 28.8626C20.5844 28.8811 20.6656 28.8811 20.7436 28.8626C20.7436 28.8626 22.2234 28.5151 23.7167 27.6684C25.2099 26.8218 26.8125 25.4017 26.8125 23.265V16.5619C26.8123 16.4499 26.7757 16.3411 26.7081 16.2517C26.6406 16.1624 26.5458 16.0976 26.4382 16.0669L20.7663 14.4581C20.7164 14.4435 20.6646 14.4366 20.6126 14.4375V14.4396C20.569 14.4403 20.5257 14.4465 20.4837 14.4581L18.5625 15.0037V0.515625C18.5625 0.378873 18.5082 0.247722 18.4115 0.151023C18.3148 0.0543246 18.1836 0 18.0469 0L2.57812 0ZM3.09375 1.03125H17.5312V15.2955L14.8118 16.0669C14.7954 16.0716 14.7792 16.0771 14.7634 16.0834C14.731 16.0957 14.6999 16.1112 14.6706 16.1298C14.6133 16.1678 14.5642 16.2169 14.5262 16.2742C14.5169 16.2878 14.5083 16.3019 14.5004 16.3164C14.4592 16.3921 14.4376 16.4768 14.4375 16.5629V23.266C14.4365 23.5476 14.4674 23.8136 14.5179 24.0704C14.5252 24.1086 14.5396 24.1426 14.5489 24.1797C14.5963 24.3911 14.6551 24.5974 14.7345 24.7923C14.7654 24.8717 14.8098 24.9428 14.8459 25.0192C14.915 25.1646 14.982 25.31 15.0655 25.4451C15.1233 25.5379 15.1893 25.6245 15.2532 25.7132C15.3275 25.8163 15.4007 25.9215 15.4832 26.0184C15.5038 26.0442 15.5213 26.0741 15.543 26.0999C15.5915 26.1556 15.6472 26.202 15.6977 26.2546C16.2342 26.8146 16.8516 27.2912 17.5292 27.6684H17.5312V27.8438H3.09375V1.03125ZM8.25 2.0625V3.09375H12.375V2.0625H8.25ZM4.60866 4.125C4.5451 4.12486 4.48215 4.13728 4.42341 4.16154C4.36467 4.1858 4.3113 4.22142 4.26636 4.26636C4.22142 4.3113 4.1858 4.36467 4.16154 4.42341C4.13728 4.48215 4.12486 4.5451 4.125 4.60866V11.4644C4.12527 11.5763 4.16444 11.6847 4.2358 11.7709C4.30717 11.8572 4.4063 11.9159 4.51621 11.9371C4.62612 11.9583 4.73999 11.9407 4.83831 11.8872C4.93663 11.8337 5.0133 11.7477 5.05519 11.6438C5.91319 9.51844 7.92619 8.03447 10.2939 8.03447C12.6689 8.03447 14.7056 9.52772 15.5698 11.6603C15.6118 11.7644 15.6887 11.8506 15.7874 11.904C15.886 11.9575 16.0002 11.975 16.1103 11.9534C16.2204 11.9317 16.3196 11.8724 16.3907 11.7857C16.4618 11.6989 16.5005 11.59 16.5 11.4778V4.60866C16.5001 4.5451 16.4877 4.48215 16.4635 4.42341C16.4392 4.36467 16.4036 4.3113 16.3586 4.26636C16.3137 4.22142 16.2603 4.1858 16.2016 4.16154C16.1429 4.13728 16.0799 4.12486 16.0163 4.125H4.60866ZM5.09025 5.09231H15.5348V9.70612C14.3117 8.10872 12.4255 7.06922 10.2939 7.06922C8.17369 7.06922 6.303 8.09944 5.09025 9.68447V5.09128V5.09231ZM7.76222 9.79688V9.80719H7.7385V10.8384H8.79656C9.75872 10.8384 10.2455 11.2932 10.4198 11.8594H7.76222V12.8906H10.4208C10.2465 13.4568 9.76078 13.9136 8.79759 13.9136H7.73747V14.9449H8.04375L11.1891 18.0469L11.9151 17.3147L9.44522 14.8768C10.5641 14.6417 11.2819 13.8095 11.4799 12.8906H12.8875V11.8594H11.4799C11.3994 11.4881 11.2262 11.1375 10.9849 10.8281H12.8875V9.79688H7.76222ZM21.1406 10.8281V12.8906H22.1719V10.8281H21.1406ZM24.8284 11.3438L24.0395 13.2495L24.9893 13.6455L25.7812 11.7408L24.8284 11.3438ZM28.1459 13.4062L26.6877 14.8665L27.4168 15.5956L28.875 14.1374L28.1459 13.4062ZM20.625 15.4904L25.7812 16.9527V23.266C25.7812 24.883 24.551 26.0102 23.2072 26.7723C21.9233 27.5003 20.7364 27.7829 20.625 27.8097C20.5219 27.7839 19.4948 27.5272 18.3284 26.9198L18.3253 26.9156C18.3126 26.9082 18.2995 26.9013 18.2861 26.895C17.9412 26.7114 17.609 26.5047 17.292 26.2762C17.2662 26.2587 17.2384 26.2453 17.2126 26.2267C16.8902 25.9932 16.5939 25.7256 16.3288 25.4286L16.3206 25.4203L16.3185 25.4183C16.2121 25.293 16.1132 25.1614 16.0225 25.0243C16.0019 24.9934 15.9761 24.9624 15.9565 24.9315C15.8977 24.8387 15.8524 24.7397 15.8029 24.6427C15.7637 24.5633 15.7193 24.486 15.6863 24.4035C15.6544 24.3241 15.6348 24.2385 15.61 24.156C15.5801 24.0601 15.5451 23.9662 15.5255 23.8662C15.4907 23.6809 15.4731 23.4927 15.4729 23.3042C15.4729 23.2918 15.4688 23.2815 15.4688 23.2691V16.9568L18.1882 16.1855C18.1975 16.1823 18.2068 16.1789 18.216 16.1752L20.625 15.4935V15.4914V15.4904ZM4.60247 15.8978C4.47554 15.8991 4.35426 15.9504 4.26489 16.0406C4.17552 16.1307 4.12526 16.2524 4.125 16.3793V23.2372C4.12514 23.3005 4.13775 23.3633 4.16213 23.4218C4.18651 23.4803 4.22217 23.5334 4.26709 23.5781C4.312 23.6228 4.36528 23.6583 4.42388 23.6824C4.48249 23.7065 4.54528 23.7189 4.60866 23.7188H13.2031C13.2696 23.7185 13.3354 23.7046 13.3963 23.6777C13.4572 23.6509 13.5119 23.6117 13.557 23.5627C13.602 23.5137 13.6364 23.4559 13.658 23.393C13.6797 23.33 13.688 23.2633 13.6826 23.1969C13.6672 23.0216 13.6476 22.903 13.6476 22.8082V19.5597C13.6477 19.4761 13.626 19.3938 13.5847 19.321C13.5434 19.2483 13.484 19.1875 13.4121 19.1446C13.3402 19.1018 13.2585 19.0783 13.1748 19.0766C13.0912 19.0749 13.0085 19.095 12.935 19.1348C12.1259 19.5792 11.2181 19.8133 10.295 19.8155C7.92619 19.8155 5.91319 18.3284 5.05622 16.202C5.01985 16.1117 4.95706 16.0346 4.87609 15.9807C4.79512 15.9268 4.69974 15.8986 4.60247 15.8998V15.8978ZM30.5281 16.5L28.6357 17.3178L29.0441 18.2645L30.9375 17.4488L30.5281 16.5ZM5.09128 18.1603C6.30403 19.7453 8.17472 20.7776 10.295 20.7776C11.1602 20.7776 11.9274 20.4734 12.6823 20.164V22.7535H5.09025L5.09128 18.1603ZM22.0842 20.0166L20.261 21.8398L19.1678 20.7467L18.4387 21.4747L20.261 23.298L22.8133 20.7457L22.0842 20.0166ZM29.3906 21.1406V22.1719H31.4531V21.1406H29.3906ZM10.3125 24.75C10.039 24.75 9.77669 24.8586 9.5833 25.052C9.3899 25.2454 9.28125 25.5077 9.28125 25.7812C9.28125 26.0548 9.3899 26.3171 9.5833 26.5105C9.77669 26.7039 10.039 26.8125 10.3125 26.8125C10.586 26.8125 10.8483 26.7039 11.0417 26.5105C11.2351 26.3171 11.3438 26.0548 11.3438 25.7812C11.3438 25.5077 11.2351 25.2454 11.0417 25.052C10.8483 24.8586 10.586 24.75 10.3125 24.75ZM29.0441 25.0501L28.6357 25.9968L30.5291 26.8125L30.9375 25.8658L29.0441 25.0501ZM27.4168 27.719L26.6877 28.4481L28.1459 29.9062L28.875 29.1772L27.4168 27.719ZM24.782 29.667L23.8796 30.1661L24.8789 31.9688L25.7812 31.4717L24.782 29.667ZM21.1406 30.4219V32.4844H22.1719V30.4219H21.1406Z" fill="white"/>
</g>
<defs>
<clipPath id="clip0_202_200">
<rect width="33" height="33" fill="white"/>
</clipPath>
</defs>
</svg>
