<svg width="33" height="33" viewBox="0 0 33 33" fill="none" xmlns="http://www.w3.org/2000/svg">
<g clip-path="url(#clip0_202_155)">
<path d="M16.2986 11.9195C16.3617 11.9483 16.4302 11.9632 16.4996 11.9632C16.5689 11.9632 16.6374 11.9483 16.7005 11.9195C17.5569 11.5307 18.318 10.9596 18.9308 10.2461C19.8179 9.20234 20.2869 7.95079 20.2869 6.62673V4.48237C20.2869 4.35911 20.2398 4.24051 20.1552 4.15082C20.0706 4.06113 19.955 4.00714 19.832 3.99987C19.0222 3.95667 18.2335 3.72634 17.5278 3.32698C17.2751 3.18043 17.0366 3.01077 16.8153 2.82019C16.7275 2.74449 16.6155 2.70284 16.4996 2.70284C16.3837 2.70284 16.2716 2.74449 16.1839 2.82019C15.9626 3.01078 15.7241 3.18042 15.4715 3.32692C14.7657 3.72628 13.977 3.9566 13.1673 3.99981C13.0442 4.00707 12.9286 4.06108 12.844 4.15078C12.7594 4.24048 12.7123 4.3591 12.7123 4.48237V6.62673C12.7123 7.95085 13.1814 9.20253 14.0686 10.2462C14.6813 10.9597 15.4423 11.5307 16.2986 11.9195ZM13.6791 4.9222C14.4811 4.82233 15.2553 4.5643 15.9568 4.16307C16.1444 4.05421 16.3256 3.93478 16.4996 3.80536C16.6736 3.93478 16.8549 4.05421 17.0424 4.16307C17.744 4.56431 18.5182 4.82234 19.3201 4.9222V6.62673C19.3201 7.7183 18.9308 8.75336 18.194 9.62012C17.7225 10.1692 17.1465 10.6191 16.4996 10.9435C15.8527 10.6191 15.2768 10.1693 14.8054 9.62032C14.0686 8.75348 13.6791 7.71837 13.6791 6.62673V4.9222ZM32.8581 15.136C32.8132 15.0911 32.7599 15.0555 32.7012 15.0312C32.6426 15.0069 32.5797 14.9944 32.5162 14.9944C32.4527 14.9944 32.3899 15.0069 32.3312 15.0312C32.2725 15.0555 32.2192 15.0911 32.1744 15.136L29.3797 17.9307L22.7509 11.1622C23.2689 10.3205 23.6101 9.38212 23.7539 8.40428L25.6379 6.50691C25.6826 6.46186 25.7181 6.40845 25.7422 6.34971C25.7662 6.29097 25.7785 6.22807 25.7783 6.16459C25.7781 6.1011 25.7654 6.03829 25.7409 5.97972C25.7164 5.92115 25.6806 5.86799 25.6355 5.82325C25.5905 5.77852 25.5371 5.7431 25.4783 5.71901C25.4196 5.69492 25.3567 5.68263 25.2932 5.68286C25.2297 5.68308 25.1669 5.6958 25.1083 5.7203C25.0498 5.7448 24.9966 5.78059 24.9519 5.82564L23.8233 6.96227C23.7275 5.07302 22.9053 3.29387 21.5286 1.9966C20.1518 0.699323 18.3269 -0.0156943 16.4353 0.000955779C14.5437 0.0176059 12.7317 0.764635 11.378 2.08594C10.0243 3.40725 9.23353 5.2006 9.17103 7.09124L7.8598 5.81932C7.76754 5.73132 7.64425 5.68334 7.51678 5.68581C7.38931 5.68829 7.26797 5.74102 7.1792 5.83253C7.09042 5.92405 7.0414 6.04692 7.04279 6.17441C7.04419 6.3019 7.09589 6.42368 7.18665 6.51322L9.26546 8.52983C9.42248 9.48223 9.76712 10.3939 10.2794 11.212L3.65991 17.9711L0.824806 15.136C0.780096 15.0903 0.726772 15.054 0.667921 15.0291C0.609069 15.0041 0.545858 14.9911 0.481945 14.9908C0.418031 14.9904 0.354685 15.0028 0.295571 15.0271C0.236458 15.0514 0.18275 15.0872 0.137556 15.1324C0.0923617 15.1776 0.0565787 15.2313 0.0322772 15.2904C0.00797564 15.3495 -0.00436186 15.4128 -0.00402146 15.4767C-0.00368106 15.5407 0.00933048 15.6039 0.0342603 15.6627C0.0591901 15.7216 0.0955432 15.7749 0.141216 15.8196L3.23638 18.9148C3.27748 18.9857 3.33638 19.0446 3.40725 19.0856L3.83296 19.5114C4.05679 19.7366 4.3231 19.9152 4.61646 20.0368C4.90981 20.1584 5.22438 20.2205 5.54194 20.2196C5.76684 20.2197 5.99066 20.1884 6.20696 20.1268C6.2192 20.455 6.25489 20.782 6.31376 21.1051C6.08853 21.2085 5.88354 21.3512 5.70842 21.5266L4.6472 22.5878C4.35425 22.8808 4.15476 23.254 4.07394 23.6604C3.99312 24.0667 4.0346 24.4879 4.19314 24.8707C4.35169 25.2534 4.62017 25.5806 4.96464 25.8108C5.30911 26.0409 5.7141 26.1638 6.1284 26.1638C6.19362 26.1638 6.25833 26.1605 6.3224 26.1547C6.29532 26.4448 6.32909 26.7373 6.42155 27.0136C6.51401 27.2899 6.66312 27.5438 6.85935 27.7592C7.05558 27.9745 7.2946 28.1465 7.56112 28.2642C7.82764 28.3819 8.11579 28.4426 8.40714 28.4426C8.47204 28.4426 8.53643 28.4393 8.60024 28.4335C8.59444 28.4973 8.59121 28.5617 8.59121 28.6265C8.59111 28.9016 8.64523 29.174 8.75048 29.4281C8.85572 29.6822 9.01003 29.9131 9.20458 30.1076C9.39912 30.302 9.63009 30.4562 9.88428 30.5614C10.1385 30.6665 10.4109 30.7205 10.6859 30.7203C10.7504 30.7203 10.8148 30.7173 10.8791 30.7112C10.8732 30.7754 10.87 30.8402 10.87 30.9053C10.8692 31.1805 10.9231 31.4531 11.0284 31.7073C11.1337 31.9616 11.2884 32.1924 11.4835 32.3864C11.8767 32.7787 12.4094 32.999 12.9647 32.999C13.5201 32.999 14.0527 32.7787 14.4459 32.3865L15.1439 31.6885L15.8419 32.3866C16.1465 32.6915 16.5376 32.8949 16.9621 32.9692C17.3865 33.0435 17.8235 32.985 18.2135 32.8018C18.6034 32.6185 18.9274 32.3194 19.1411 31.9453C19.3548 31.5711 19.4479 31.1402 19.4076 30.7112C19.4722 30.7172 19.5369 30.7202 19.6019 30.7202C19.8769 30.7204 20.1493 30.6664 20.4035 30.5613C20.6577 30.4562 20.8886 30.302 21.0832 30.1075C21.2777 29.9131 21.432 29.6822 21.5373 29.4281C21.6425 29.174 21.6967 28.9016 21.6966 28.6266C21.6966 28.5617 21.6934 28.4973 21.6876 28.4335C21.7514 28.4393 21.8157 28.4426 21.8805 28.4426C22.4361 28.4425 22.9689 28.2218 23.3617 27.829C23.7546 27.4361 23.9753 26.9033 23.9753 26.3478C23.9753 26.2829 23.9721 26.2185 23.9663 26.1547C24.0301 26.1605 24.0944 26.1637 24.1594 26.1637C24.5736 26.1637 24.9786 26.0408 25.3231 25.8107C25.6675 25.5805 25.936 25.2533 26.0946 24.8706C26.2531 24.4878 26.2946 24.0667 26.2138 23.6604C26.133 23.254 25.9335 22.8808 25.6405 22.5878L25.0547 22.002C25.7358 21.4838 26.3173 20.8465 26.7711 20.1209C26.9939 20.1865 27.225 20.2198 27.4573 20.2196C27.7748 20.2205 28.0893 20.1584 28.3827 20.0368C28.676 19.9153 28.9423 19.7368 29.1661 19.5115L32.858 15.8197C32.9029 15.7748 32.9385 15.7215 32.9628 15.6628C32.9871 15.6042 32.9996 15.5413 32.9996 15.4778C32.9996 15.4144 32.9871 15.3515 32.9628 15.2929C32.9385 15.2342 32.903 15.1809 32.8581 15.136ZM10.1992 8.24637C10.1985 8.23941 10.1973 8.23251 10.1963 8.22561C10.0502 7.19943 10.1569 6.1531 10.5071 5.17751C10.8573 4.20193 11.4403 3.3266 12.2057 2.62756C12.971 1.92852 13.8955 1.42692 14.8987 1.16633C15.9019 0.905732 16.9536 0.89403 17.9624 1.13224C18.9712 1.37044 19.9066 1.85135 20.6873 2.53318C21.468 3.21502 22.0704 4.07716 22.4422 5.04471C22.814 6.01226 22.9439 7.05596 22.8207 8.08514C22.6975 9.11432 22.3249 10.0979 21.7352 10.9503L21.732 10.9549C21.0047 12.0065 19.9776 12.8147 18.7844 13.2741C17.5912 13.7335 16.2873 13.8229 15.0426 13.5306C13.7979 13.2383 12.6701 12.5778 11.8062 11.6352C10.9423 10.6927 10.3823 9.51177 10.1992 8.24637ZM5.54194 19.2528C5.35142 19.2534 5.1627 19.2161 4.98671 19.1431C4.81071 19.0701 4.65095 18.963 4.51668 18.8278L4.34362 18.6548L10.8538 12.0073C11.2367 12.4688 11.6743 12.8821 12.157 13.238L6.56668 18.8283C6.43243 18.9634 6.27273 19.0704 6.09683 19.1432C5.92093 19.2161 5.73233 19.2534 5.54194 19.2528ZM6.92594 24.8666C6.82121 24.9714 6.69687 25.0545 6.56003 25.1112C6.42319 25.1679 6.27652 25.197 6.1284 25.197C5.98027 25.197 5.8336 25.1679 5.69676 25.1112C5.55992 25.0545 5.43558 24.9714 5.33085 24.8666C5.11934 24.6551 5.00051 24.3682 5.00051 24.069C5.00051 23.7699 5.11934 23.483 5.33085 23.2715L6.39201 22.2103C6.49658 22.1048 6.62095 22.021 6.758 21.9637C6.89504 21.9064 7.04205 21.8768 7.19058 21.8765C7.33912 21.8761 7.48626 21.9051 7.62355 21.9618C7.76085 22.0185 7.88559 22.1018 7.99063 22.2068C8.09566 22.3118 8.17892 22.4366 8.23561 22.5739C8.29231 22.7112 8.32133 22.8583 8.321 23.0068C8.32068 23.1554 8.29102 23.3024 8.23373 23.4394C8.17644 23.5765 8.09265 23.7008 7.98716 23.8054L6.92594 24.8666ZM8.40714 27.4758C8.25896 27.4761 8.11218 27.4471 7.97528 27.3904C7.83838 27.3337 7.71409 27.2504 7.60959 27.1454V27.1453C7.39839 26.9336 7.27979 26.6468 7.27979 26.3478C7.27979 26.0487 7.39839 25.7619 7.60959 25.5502L8.67075 24.489C8.88229 24.2775 9.1692 24.1586 9.46836 24.1586C9.76752 24.1586 10.0544 24.2775 10.266 24.489C10.4775 24.7005 10.5963 24.9875 10.5963 25.2866C10.5963 25.5858 10.4775 25.8727 10.266 26.0842L9.20474 27.1454C9.10024 27.2504 8.97593 27.3337 8.83903 27.3904C8.70212 27.4472 8.55532 27.4762 8.40714 27.4758ZM9.88833 29.4241C9.67682 29.2126 9.55799 28.9257 9.55799 28.6266C9.55799 28.3274 9.67682 28.0406 9.88833 27.829L10.9496 26.7678C11.1611 26.5563 11.448 26.4374 11.7471 26.4374C12.0463 26.4374 12.3332 26.5563 12.5447 26.7678C12.7562 26.9793 12.8751 27.2662 12.8751 27.5654C12.8751 27.8645 12.7562 28.1514 12.5447 28.363L11.4835 29.4241C11.2718 29.6354 10.985 29.754 10.6859 29.754C10.3869 29.754 10.1 29.6354 9.88833 29.4241ZM14.8235 30.6416L13.7623 31.7029C13.5506 31.9141 13.2638 32.0328 12.9647 32.0328C12.6656 32.0328 12.3788 31.9141 12.1671 31.7029V31.7029C12.0623 31.5982 11.9792 31.4738 11.9226 31.337C11.8659 31.2001 11.8367 31.0535 11.8367 30.9053C11.8367 30.7572 11.8659 30.6106 11.9226 30.4737C11.9792 30.3369 12.0623 30.2125 12.1671 30.1078L13.2283 29.0466C13.4398 28.835 13.7267 28.7162 14.0259 28.7162C14.325 28.7161 14.6119 28.835 14.8234 29.0465C15.035 29.258 15.1538 29.5449 15.1538 29.844C15.1539 30.1432 15.035 30.4301 14.8235 30.6416ZM25.2873 24.069C25.2873 24.2921 25.2212 24.5102 25.0973 24.6957C24.9733 24.8812 24.7971 25.0258 24.591 25.1111C24.3849 25.1965 24.1581 25.2188 23.9393 25.1753C23.7205 25.1318 23.5195 25.0243 23.3618 24.8666L19.8981 21.4029C19.8532 21.358 19.7999 21.3224 19.7413 21.2981C19.6826 21.2738 19.6197 21.2613 19.5563 21.2612C19.4928 21.2612 19.4299 21.2737 19.3713 21.298C19.3126 21.3223 19.2593 21.3579 19.2144 21.4028C19.1695 21.4477 19.1339 21.501 19.1096 21.5597C19.0853 21.6183 19.0728 21.6812 19.0728 21.7447C19.0728 21.8082 19.0853 21.871 19.1096 21.9297C19.1339 21.9883 19.1695 22.0416 19.2144 22.0865L22.6781 25.5502C22.7842 25.6547 22.8685 25.7791 22.9263 25.9163C22.984 26.0535 23.014 26.2007 23.0146 26.3496C23.0152 26.4984 22.9863 26.6459 22.9296 26.7836C22.8729 26.9212 22.7895 27.0462 22.6843 27.1515C22.579 27.2567 22.454 27.3401 22.3163 27.3968C22.1787 27.4535 22.0312 27.4824 21.8823 27.4818C21.7335 27.4813 21.5862 27.4512 21.449 27.3935C21.3118 27.3357 21.1874 27.2514 21.083 27.1453L17.6194 23.6816C17.5287 23.5909 17.4057 23.54 17.2775 23.54C17.1493 23.54 17.0264 23.5909 16.9357 23.6816C16.845 23.7723 16.7941 23.8952 16.7941 24.0234C16.7941 24.1516 16.845 24.2746 16.9357 24.3653L20.3993 27.829C20.5058 27.9333 20.5905 28.0577 20.6486 28.195C20.7067 28.3323 20.737 28.4798 20.7377 28.6288C20.7385 28.7779 20.7097 28.9256 20.653 29.0635C20.5963 29.2014 20.5128 29.3266 20.4074 29.432C20.302 29.5374 20.1767 29.6209 20.0389 29.6776C19.901 29.7343 19.7533 29.7631 19.6042 29.7624C19.4551 29.7617 19.3077 29.7314 19.1704 29.6733C19.0331 29.6152 18.9087 29.5305 18.8043 29.4241L15.3406 25.9603C15.2957 25.9154 15.2424 25.8798 15.1837 25.8555C15.1251 25.8312 15.0622 25.8187 14.9987 25.8187C14.9352 25.8187 14.8724 25.8312 14.8137 25.8554C14.755 25.8797 14.7017 25.9153 14.6568 25.9602C14.6119 26.0051 14.5763 26.0584 14.552 26.117C14.5277 26.1757 14.5152 26.2386 14.5152 26.302C14.5152 26.3655 14.5276 26.4284 14.5519 26.4871C14.5762 26.5457 14.6118 26.599 14.6567 26.6439L18.1204 30.1076C18.2265 30.2121 18.3109 30.3365 18.3686 30.4736C18.4264 30.6108 18.4565 30.7581 18.4571 30.9069C18.4577 31.0558 18.4288 31.2033 18.3721 31.3409C18.3155 31.4786 18.2321 31.6036 18.1269 31.7089C18.0216 31.8142 17.8966 31.8976 17.759 31.9543C17.6213 32.011 17.4738 32.0399 17.325 32.0394C17.1761 32.0388 17.0289 32.0088 16.8917 31.9511C16.7545 31.8934 16.63 31.809 16.5256 31.703L15.7925 30.9699C15.9942 30.6532 16.1072 30.2882 16.1195 29.9129C16.1318 29.5376 16.043 29.1659 15.8624 28.8367C15.6818 28.5075 15.4161 28.2329 15.093 28.0416C14.7699 27.8503 14.4013 27.7494 14.0258 27.7494C13.961 27.7494 13.8966 27.7526 13.8328 27.7584C13.8386 27.6946 13.8418 27.6303 13.8418 27.5654C13.8418 27.0099 13.6211 26.4771 13.2283 26.0842C12.8354 25.6914 12.3026 25.4707 11.7471 25.4706C11.6823 25.4706 11.6179 25.4739 11.5541 25.4797C11.5599 25.4158 11.5631 25.3515 11.5631 25.2866C11.563 24.7311 11.3423 24.1983 10.9495 23.8055C10.5567 23.4126 10.0239 23.1919 9.46836 23.1919C9.40345 23.1919 9.33906 23.1951 9.27525 23.2009C9.28106 23.1371 9.28428 23.0727 9.28428 23.0079C9.28459 22.4648 9.07368 21.9428 8.69614 21.5524C8.3186 21.162 7.80403 20.9337 7.26122 20.9159C7.18287 20.4776 7.15398 20.0319 7.17511 19.5872L7.25033 19.5119L7.25098 19.5113L7.25123 19.511L12.9704 13.792C12.9774 13.785 12.9836 13.7775 12.9901 13.7701C13.7481 14.1852 14.5739 14.4621 15.429 14.5877L12.5073 17.8529C12.2515 18.1391 12.1149 18.5123 12.1256 18.896C12.1362 19.2797 12.2933 19.6448 12.5646 19.9163C13.0794 20.4299 13.7769 20.7184 14.5042 20.7184C15.2314 20.7184 15.929 20.4299 16.4438 19.9163L19.0224 17.337L24.9569 23.2715C25.062 23.376 25.1453 23.5003 25.202 23.6372C25.2587 23.7741 25.2877 23.9208 25.2873 24.069ZM25.4431 20.3062C25.1247 20.683 24.7623 21.0204 24.3639 21.3111L19.4423 16.3896C19.4132 16.3669 19.3869 16.3407 19.364 16.3116C19.3192 16.2667 19.2659 16.2311 19.2072 16.2068C19.1486 16.1825 19.0857 16.17 19.0222 16.17C18.9588 16.17 18.8959 16.1825 18.8373 16.2068C18.7786 16.2311 18.7253 16.2667 18.6804 16.3116L15.7601 19.2327C15.4267 19.5652 14.975 19.752 14.5041 19.752C14.0332 19.752 13.5816 19.5652 13.2482 19.2327C13.1516 19.1359 13.0956 19.0058 13.0919 18.8691C13.0881 18.7324 13.1368 18.5995 13.2279 18.4975L16.658 14.664C17.8373 14.64 18.9931 14.33 20.0262 13.7606C20.0902 13.8437 20.1596 13.9227 20.2338 13.9969L25.7482 19.5114C25.8017 19.5649 25.8575 19.6153 25.9149 19.6631C25.7717 19.8875 25.6141 20.1023 25.4431 20.3062ZM28.4824 18.828C28.3478 18.9627 28.1879 19.0695 28.012 19.1424C27.8361 19.2153 27.6476 19.2528 27.4572 19.2528C27.2668 19.2528 27.0782 19.2152 26.9024 19.1423C26.7265 19.0694 26.5667 18.9625 26.4321 18.8278L20.9174 13.3132C20.8927 13.2881 20.8688 13.2621 20.8459 13.2353C21.3426 12.8686 21.7914 12.4411 22.1818 11.9628L28.6959 18.6144L28.4824 18.828Z" fill="white"/>
</g>
<defs>
<clipPath id="clip0_202_155">
<rect width="33" height="33" fill="white"/>
</clipPath>
</defs>
</svg>
