<svg width="889" height="502" viewBox="0 0 889 502" fill="none" xmlns="http://www.w3.org/2000/svg">
<g filter="url(#filter0_i_306_190)">
<path d="M266.852 282.993C249.682 349.642 179.927 390.203 111.047 373.583C42.1969 356.967 0.28331 289.458 17.4607 222.814C34.6231 156.157 104.378 115.593 173.236 132.209C242.111 148.825 284.022 216.341 266.85 282.994L266.852 282.993Z" fill="url(#paint0_radial_306_190)"/>
</g>
<path d="M266.852 282.993C249.682 349.642 179.927 390.203 111.047 373.583C42.1969 356.967 0.28331 289.458 17.4607 222.814C34.6231 156.157 104.378 115.593 173.236 132.209C242.111 148.825 284.022 216.341 266.85 282.994L266.852 282.993Z" stroke="url(#paint1_linear_306_190)" stroke-width="7" style="mix-blend-mode:soft-light"/>
<path d="M143.066 168.116L194.77 252.415L143.066 282.446V168.116Z" stroke="url(#paint2_linear_306_190)" stroke-width="4"/>
<path d="M140.274 281.744L89.776 252.415L140.274 170.086V228.429V281.744Z" stroke="url(#paint3_linear_306_190)" stroke-width="4"/>
<path d="M143.593 334.709V297.048L190.454 269.862L143.593 334.709Z" stroke="url(#paint4_linear_306_190)" stroke-width="4"/>
<path d="M94.1239 269.863L140.274 296.653V333.763L94.1239 269.863Z" stroke="url(#paint5_linear_306_190)" stroke-width="4"/>
<path d="M144.274 231.513L193.163 253.349L144.274 281.744V231.513Z" stroke="url(#paint6_linear_306_190)" stroke-width="4"/>
<path d="M140.274 231.513V281.744L91.3831 253.349L140.274 231.513Z" stroke="url(#paint7_linear_306_190)" stroke-width="4"/>
<g clip-path="url(#clip0_306_190)">
<g filter="url(#filter1_i_306_190)">
<path d="M873.698 280.992C857.028 347.654 789.305 388.224 722.431 371.6C655.586 354.981 614.893 287.459 631.57 220.802C648.233 154.132 715.957 113.559 782.809 130.179C849.678 146.798 890.368 214.328 873.696 280.993L873.698 280.992Z" fill="url(#paint8_radial_306_190)"/>
</g>
<path d="M873.698 280.992C857.028 347.654 789.305 388.224 722.431 371.6C655.586 354.981 614.893 287.459 631.57 220.802C648.233 154.132 715.957 113.559 782.809 130.179C849.678 146.798 890.368 214.328 873.696 280.993L873.698 280.992Z" stroke="url(#paint9_linear_306_190)" stroke-width="7" style="mix-blend-mode:soft-light"/>
<path d="M711.984 276.27C712.726 275.531 713.747 275.1 714.829 275.1H812.984C814.777 275.1 815.674 277.256 814.406 278.519L795.016 297.83C794.274 298.569 793.254 299 792.171 299H694.017C692.223 299 691.326 296.844 692.594 295.581L711.984 276.27Z" stroke="url(#paint10_linear_306_190)" stroke-width="4"/>
<path d="M711.984 204.17C712.757 203.431 713.777 203 714.829 203H812.983C814.777 203 815.674 205.156 814.406 206.419L795.016 225.73C794.274 226.469 793.254 226.9 792.171 226.9H694.016C692.223 226.9 691.326 224.744 692.594 223.481L711.984 204.17Z" stroke="url(#paint11_linear_306_190)" stroke-width="4"/>
<path d="M795.016 239.989C794.274 239.25 793.254 238.819 792.171 238.819H694.017C692.223 238.819 691.326 240.975 692.594 242.238L711.984 261.549C712.726 262.288 713.747 262.719 714.829 262.719H812.984C814.777 262.719 815.674 260.563 814.406 259.3L795.016 239.989Z" stroke="url(#paint12_linear_306_190)" stroke-width="4"/>
</g>
<g clip-path="url(#clip1_306_190)">
<g filter="url(#filter2_i_306_190)">
<path d="M646.036 251.087C646.035 361.317 556.66 450.685 446.405 450.687C336.195 450.684 246.821 361.316 246.835 251.091C246.821 140.853 336.196 51.4801 446.417 51.4797C556.663 51.4731 646.036 140.854 646.034 251.09L646.036 251.087Z" fill="url(#paint13_radial_306_190)"/>
</g>
<path d="M646.036 251.087C646.035 361.317 556.66 450.685 446.405 450.687C336.195 450.684 246.821 361.316 246.835 251.091C246.821 140.853 336.196 51.4801 446.417 51.4797C556.663 51.4731 646.036 140.854 646.034 251.09L646.036 251.087Z" stroke="url(#paint14_linear_306_190)" stroke-width="7" style="mix-blend-mode:soft-light"/>
<path d="M524.867 202.146C522.297 175.414 499.221 166.454 470.085 163.902L470.085 126.824L447.513 126.827L447.514 162.93C441.579 162.929 435.514 163.047 429.487 163.167L429.492 126.825L406.933 126.826L406.924 163.895C402.038 163.995 397.238 164.087 392.559 164.089L392.556 163.973L361.424 163.963L361.43 188.069C361.43 188.069 378.098 187.751 377.821 188.056C386.963 188.058 389.939 193.367 390.807 197.946L390.807 240.187C391.437 240.19 392.26 240.216 393.193 240.346C392.44 240.346 391.638 240.342 390.808 240.35L390.801 299.526C390.401 302.403 388.709 306.992 382.321 307.002C382.611 307.257 365.914 306.999 365.914 306.999L361.427 333.954L390.802 333.952C396.269 333.959 401.647 334.052 406.929 334.083L406.938 371.585L429.486 371.587L429.485 334.482C435.677 334.61 441.667 334.659 447.517 334.654L447.507 371.588L470.08 371.583L470.086 334.148C508.036 331.97 534.596 322.411 537.894 286.777C540.557 258.085 527.06 245.283 505.52 240.111C518.608 233.447 526.79 221.707 524.876 202.147L524.868 202.144L524.867 202.146ZM493.285 282.333C493.297 310.359 445.306 307.173 430.008 307.188L430.015 257.5C445.317 257.504 493.288 253.102 493.286 282.333L493.285 282.333ZM482.788 212.231C482.781 237.727 442.758 234.754 430.015 234.755L430.018 189.692C442.761 189.691 482.787 185.639 482.79 212.231L482.788 212.231Z" stroke="url(#paint15_linear_306_190)" stroke-width="4"/>
</g>
<defs>
<filter id="filter0_i_306_190" x="10.1074" y="124.987" width="264.094" height="256.819" filterUnits="userSpaceOnUse" color-interpolation-filters="sRGB">
<feFlood flood-opacity="0" result="BackgroundImageFix"/>
<feBlend mode="normal" in="SourceGraphic" in2="BackgroundImageFix" result="shape"/>
<feColorMatrix in="SourceAlpha" type="matrix" values="0 0 0 0 0 0 0 0 0 0 0 0 0 0 0 0 0 0 127 0" result="hardAlpha"/>
<feOffset dy="1"/>
<feGaussianBlur stdDeviation="6.5"/>
<feComposite in2="hardAlpha" operator="arithmetic" k2="-1" k3="1"/>
<feColorMatrix type="matrix" values="0 0 0 0 0.985417 0 0 0 0 0.942708 0 0 0 0 0.814583 0 0 0 1 0"/>
<feBlend mode="normal" in2="shape" result="effect1_innerShadow_306_190"/>
</filter>
<filter id="filter1_i_306_190" x="624.331" y="122.954" width="256.602" height="256.872" filterUnits="userSpaceOnUse" color-interpolation-filters="sRGB">
<feFlood flood-opacity="0" result="BackgroundImageFix"/>
<feBlend mode="normal" in="SourceGraphic" in2="BackgroundImageFix" result="shape"/>
<feColorMatrix in="SourceAlpha" type="matrix" values="0 0 0 0 0 0 0 0 0 0 0 0 0 0 0 0 0 0 127 0" result="hardAlpha"/>
<feOffset dy="1"/>
<feGaussianBlur stdDeviation="6.5"/>
<feComposite in2="hardAlpha" operator="arithmetic" k2="-1" k3="1"/>
<feColorMatrix type="matrix" values="0 0 0 0 0.985417 0 0 0 0 0.942708 0 0 0 0 0.814583 0 0 0 1 0"/>
<feBlend mode="normal" in2="shape" result="effect1_innerShadow_306_190"/>
</filter>
<filter id="filter2_i_306_190" x="243.335" y="47.9797" width="406.201" height="407.207" filterUnits="userSpaceOnUse" color-interpolation-filters="sRGB">
<feFlood flood-opacity="0" result="BackgroundImageFix"/>
<feBlend mode="normal" in="SourceGraphic" in2="BackgroundImageFix" result="shape"/>
<feColorMatrix in="SourceAlpha" type="matrix" values="0 0 0 0 0 0 0 0 0 0 0 0 0 0 0 0 0 0 127 0" result="hardAlpha"/>
<feOffset dy="1"/>
<feGaussianBlur stdDeviation="6.5"/>
<feComposite in2="hardAlpha" operator="arithmetic" k2="-1" k3="1"/>
<feColorMatrix type="matrix" values="0 0 0 0 0.985417 0 0 0 0 0.942708 0 0 0 0 0.814583 0 0 0 1 0"/>
<feBlend mode="normal" in2="shape" result="effect1_innerShadow_306_190"/>
</filter>
<radialGradient id="paint0_radial_306_190" cx="0" cy="0" r="1" gradientUnits="userSpaceOnUse" gradientTransform="translate(146.267 238.044) rotate(-31.4112) scale(257.763 271.38)">
<stop stop-color="#382D21" stop-opacity="0.57"/>
<stop offset="0.385417" stop-color="#42544A" stop-opacity="0.58"/>
<stop offset="0.994792" stop-color="#E5C975" stop-opacity="0.63"/>
</radialGradient>
<linearGradient id="paint1_linear_306_190" x1="142.154" y1="128.486" x2="142.154" y2="377.308" gradientUnits="userSpaceOnUse">
<stop stop-color="#EBEBE6"/>
<stop offset="0.213542" stop-color="#5F706C"/>
<stop offset="0.401042" stop-color="#3A4F4A"/>
<stop offset="0.942708" stop-color="#F3DF90" stop-opacity="0.63"/>
</linearGradient>
<linearGradient id="paint2_linear_306_190" x1="169.306" y1="163" x2="169.306" y2="285.219" gradientUnits="userSpaceOnUse">
<stop stop-color="#ECE0BA"/>
<stop offset="1" stop-color="#90846B"/>
</linearGradient>
<linearGradient id="paint3_linear_306_190" x1="114.637" y1="163" x2="114.637" y2="285.219" gradientUnits="userSpaceOnUse">
<stop stop-color="#ECE0BA"/>
<stop offset="1" stop-color="#90846B"/>
</linearGradient>
<linearGradient id="paint4_linear_306_190" x1="169.587" y1="263.415" x2="169.587" y2="339.949" gradientUnits="userSpaceOnUse">
<stop stop-color="#ECE0BA"/>
<stop offset="1" stop-color="#90846B"/>
</linearGradient>
<linearGradient id="paint5_linear_306_190" x1="114.637" y1="263.415" x2="114.637" y2="339.949" gradientUnits="userSpaceOnUse">
<stop stop-color="#ECE0BA"/>
<stop offset="1" stop-color="#90846B"/>
</linearGradient>
<linearGradient id="paint6_linear_306_190" x1="169.91" y1="228.429" x2="169.91" y2="285.219" gradientUnits="userSpaceOnUse">
<stop stop-color="#ECE0BA"/>
<stop offset="1" stop-color="#90846B"/>
</linearGradient>
<linearGradient id="paint7_linear_306_190" x1="114.637" y1="228.429" x2="114.637" y2="285.219" gradientUnits="userSpaceOnUse">
<stop stop-color="#ECE0BA"/>
<stop offset="1" stop-color="#90846B"/>
</linearGradient>
<radialGradient id="paint8_radial_306_190" cx="0" cy="0" r="1" gradientUnits="userSpaceOnUse" gradientTransform="translate(756.625 236.035) rotate(-32.1745) scale(252.332 269.201)">
<stop stop-color="#382D21" stop-opacity="0.57"/>
<stop offset="0.385417" stop-color="#42544A" stop-opacity="0.58"/>
<stop offset="0.994792" stop-color="#E5C975" stop-opacity="0.63"/>
</radialGradient>
<linearGradient id="paint9_linear_306_190" x1="752.632" y1="126.455" x2="752.632" y2="375.326" gradientUnits="userSpaceOnUse">
<stop stop-color="#EBEBE6"/>
<stop offset="0.213542" stop-color="#5F706C"/>
<stop offset="0.401042" stop-color="#3A4F4A"/>
<stop offset="0.942708" stop-color="#F3DF90" stop-opacity="0.63"/>
</linearGradient>
<linearGradient id="paint10_linear_306_190" x1="753.5" y1="275.1" x2="753.5" y2="299" gradientUnits="userSpaceOnUse">
<stop stop-color="#ECE0BA"/>
<stop offset="1" stop-color="#90846B"/>
</linearGradient>
<linearGradient id="paint11_linear_306_190" x1="753.5" y1="203" x2="753.5" y2="226.9" gradientUnits="userSpaceOnUse">
<stop stop-color="#ECE0BA"/>
<stop offset="1" stop-color="#90846B"/>
</linearGradient>
<linearGradient id="paint12_linear_306_190" x1="753.5" y1="238.819" x2="753.5" y2="262.719" gradientUnits="userSpaceOnUse">
<stop stop-color="#ECE0BA"/>
<stop offset="1" stop-color="#90846B"/>
</linearGradient>
<radialGradient id="paint13_radial_306_190" cx="0" cy="0" r="1" gradientUnits="userSpaceOnUse" gradientTransform="translate(446.861 226.408) rotate(-46.2501) scale(404.003 431.558)">
<stop stop-color="#382D21" stop-opacity="0.57"/>
<stop offset="0.385417" stop-color="#42544A" stop-opacity="0.58"/>
<stop offset="0.994792" stop-color="#E5C975" stop-opacity="0.63"/>
</radialGradient>
<linearGradient id="paint14_linear_306_190" x1="398.131" y1="57.3618" x2="494.729" y2="444.798" gradientUnits="userSpaceOnUse">
<stop stop-color="#EBEBE6"/>
<stop offset="0.213542" stop-color="#5F706C"/>
<stop offset="0.401042" stop-color="#3A4F4A"/>
<stop offset="0.942708" stop-color="#F3DF90" stop-opacity="0.63"/>
</linearGradient>
<linearGradient id="paint15_linear_306_190" x1="408.119" y1="126.53" x2="469.268" y2="371.786" gradientUnits="userSpaceOnUse">
<stop stop-color="#ECE0BA"/>
<stop offset="1" stop-color="#90846B"/>
</linearGradient>
<clipPath id="clip0_306_190">
<rect width="286" height="256" fill="white" transform="translate(603 123)"/>
</clipPath>
<clipPath id="clip1_306_190">
<rect width="423.119" height="410.474" fill="white" transform="translate(190 103) rotate(-14)"/>
</clipPath>
</defs>
</svg>
