<svg width="58" height="45" viewBox="0 0 58 45" fill="none" xmlns="http://www.w3.org/2000/svg">
<path fill-rule="evenodd" clip-rule="evenodd" d="M42.0025 0.336426C37.0536 0.336426 31.6809 2.54962 29.023 6.97637C26.3652 2.54962 20.9924 0.336426 16.0435 0.336426C7.38491 0.336426 0.900879 5.77389 0.900879 14.8964C0.900879 18.8311 2.47798 23.9413 6.03857 28.1835C9.5989 32.4259 11.7169 34.6851 18.6123 39.25C25.5077 43.8153 29.023 44.6027 29.023 44.6027C29.023 44.6027 32.5383 43.8153 39.4337 39.25C46.329 34.6851 48.4471 32.4259 52.0075 28.1835C55.568 23.9413 57.1451 18.8311 57.1451 14.8964C57.1451 5.77389 50.6611 0.336426 42.0025 0.336426V0.336426ZM50.4088 26.9252C47.0472 30.9362 45.1284 33.0654 38.2995 37.5928C33.2623 40.9327 30.1308 42.1515 29.0229 42.5197C27.915 42.1513 24.7835 40.9325 19.7462 37.5928C12.9175 33.0654 10.9986 30.9364 7.63695 26.9251C6.12656 25.1229 4.90072 22.9977 4.09214 20.7789C3.3673 18.7895 2.98398 16.7738 2.98398 14.9497C2.98398 11.1467 4.25225 7.96214 6.6516 5.74039C7.79581 4.68088 9.17513 3.85771 10.7517 3.29361C12.3723 2.71356 14.1651 2.41958 16.0805 2.41958C20.8399 2.41958 25.2463 4.64007 27.3065 8.07642L29.023 10.9394L30.7394 8.07642C32.7998 4.64007 37.2063 2.41958 41.9655 2.41958C43.8809 2.41958 45.6737 2.71356 47.2942 3.29348C48.8709 3.85771 50.2502 4.68088 51.3944 5.74027C53.7937 7.96214 55.062 11.1467 55.062 14.9497C55.062 16.7738 54.6787 18.7895 53.9536 20.7789C53.1451 22.9976 51.9193 25.1229 50.4088 26.9252V26.9252Z" fill="url(#paint0_linear_187_13669)" fill-opacity="0.7"/>
<defs>
<linearGradient id="paint0_linear_187_13669" x1="46.3926" y1="5.056" x2="15.8627" y2="43.8469" gradientUnits="userSpaceOnUse">
<stop stop-color="#9D9E58"/>
<stop offset="1" stop-color="#A28C54"/>
</linearGradient>
</defs>
</svg>
