<svg width="47" height="46" viewBox="0 0 47 46" fill="none" xmlns="http://www.w3.org/2000/svg">
<path fill-rule="evenodd" clip-rule="evenodd" d="M42.2397 9.72541C42.7574 9.07544 43.0659 8.23818 43.0659 7.34585C43.0659 5.23068 41.3473 3.50109 39.2321 3.50109C38.3288 3.50109 37.5026 3.80955 36.8526 4.32733C33.107 1.66133 28.5902 0.163086 23.6438 0.163086C10.9858 0.163086 0.652344 10.3534 0.652344 23.0334C0.652344 35.7134 10.9748 45.9917 23.6328 45.9917C36.2907 45.9917 46.481 35.7134 46.481 23.0334C46.481 18.0759 44.9056 13.482 42.2397 9.72541V9.72541ZM39.2101 4.93325C40.5541 4.93325 41.6337 6.02389 41.6337 7.35688C41.6337 8.7009 40.5431 9.78051 39.2101 9.78051C37.8661 9.78051 36.7865 8.68988 36.7865 7.35688C36.7865 6.02389 37.8661 4.93325 39.2101 4.93325V4.93325ZM38.5271 38.0268C36.5882 39.9657 34.3188 41.508 31.796 42.5766C29.1851 43.6783 26.486 44.2511 23.6218 44.2511C20.7685 44.2511 17.9262 43.6893 15.3153 42.5766C12.7925 41.508 10.5341 39.9877 8.58422 38.0268C6.64532 36.0879 5.11402 33.8075 4.04542 31.2847C2.94377 28.6738 2.38193 25.8976 2.38193 23.0333C2.38193 20.1801 2.94377 17.3929 4.04542 14.782C5.11402 12.2592 6.6343 9.9898 8.58422 8.03987C10.5341 6.08995 12.7925 4.55866 15.3153 3.49006C17.9262 2.38841 20.7575 1.93673 23.6218 1.93673C26.475 1.93673 29.1851 2.37739 31.796 3.49006C33.1951 4.08495 34.5171 4.82305 35.7509 5.69336C35.5196 6.1891 35.3874 6.73993 35.3874 7.33482C35.3874 9.44999 37.106 11.1796 39.2211 11.1796C39.805 11.1796 40.3558 11.0474 40.8626 10.816C41.7329 12.0499 42.471 13.3719 43.0659 14.782C44.1675 17.3929 44.7294 20.169 44.7294 23.0333C44.7294 25.8866 44.1675 28.6738 43.0659 31.2847C41.9973 33.8075 40.477 36.0769 38.5271 38.0268V38.0268Z" fill="url(#paint0_linear_187_13657)" fill-opacity="0.7"/>
<path fill-rule="evenodd" clip-rule="evenodd" d="M23.6217 12.5127C17.783 12.5127 13.0459 17.2278 13.0459 23.0775C13.0459 28.9273 17.772 33.6644 23.6217 33.6644C29.4605 33.6644 34.1976 28.9273 34.1976 23.0775C34.1976 17.2278 29.4605 12.5127 23.6217 12.5127V12.5127ZM23.6218 31.8687C18.7635 31.8687 14.8416 27.9248 14.8416 23.0776C14.8416 18.2193 18.7635 14.3084 23.6218 14.3084C28.4801 14.3084 32.4019 18.2303 32.4019 23.0776C32.4019 27.9359 28.469 31.8687 23.6218 31.8687V31.8687Z" fill="url(#paint1_linear_187_13657)" fill-opacity="0.7"/>
<defs>
<linearGradient id="paint0_linear_187_13657" x1="37.7196" y1="5.04923" x2="5.20151" y2="37.5674" gradientUnits="userSpaceOnUse">
<stop stop-color="#9D9E58"/>
<stop offset="1" stop-color="#A28C54"/>
</linearGradient>
<linearGradient id="paint1_linear_187_13657" x1="30.1539" y1="14.7678" x2="15.1455" y2="29.7762" gradientUnits="userSpaceOnUse">
<stop stop-color="#9D9E58"/>
<stop offset="1" stop-color="#A28C54"/>
</linearGradient>
</defs>
</svg>
