<svg width="56" height="36" viewBox="0 0 56 36" fill="none" xmlns="http://www.w3.org/2000/svg">
<path fill-rule="evenodd" clip-rule="evenodd" d="M39.5495 27.517C37.886 26.9391 36.087 26.9022 34.4235 26.3243C33.9183 26.1521 32.9203 25.9431 32.7108 25.3652C32.5136 24.7996 32.5136 24.1356 32.4767 23.5454C32.452 23.0781 32.4397 22.6108 32.4397 22.1436C32.4397 21.8362 33.2283 21.1845 33.4008 20.9017C34.0662 19.795 34.1278 18.3072 34.251 17.053C35.323 17.3481 35.4586 15.3684 35.6434 14.7659C35.779 14.3478 36.6045 11.4705 35.323 11.864C35.6311 11.3229 35.7543 10.6589 35.8406 10.0564C36.087 8.48251 36.1856 6.76104 35.705 5.22401C34.7069 2.027 31.6388 0.231754 28.3981 0.133385C25.1081 0.022719 21.8058 1.59663 20.5736 4.78135C19.9821 6.33067 20.0314 8.01525 20.2286 9.63835C20.3148 10.3761 20.438 11.2 20.8077 11.864C19.6125 11.5074 20.2532 14.0404 20.3887 14.4831C20.5859 15.1102 20.7584 17.3604 21.8797 17.053C21.9783 18.0489 22.0892 19.0695 22.3603 20.0409C22.5451 20.6926 22.9271 21.246 23.3707 21.7501C23.5925 21.996 23.7034 22.0206 23.691 22.3403C23.6787 23.2994 23.7034 24.3323 23.4569 25.2668C23.2105 26.2013 21.1527 26.5948 20.3271 26.767C18.1092 27.2219 16.0637 27.431 14.2154 28.8081C12.059 30.3943 10.9377 32.8659 10.9377 35.5341C21.202 35.5341 31.4663 35.5341 41.7305 35.5341C42.8888 35.5341 44.0347 35.5341 45.193 35.5341C45.193 31.9068 42.9997 28.7098 39.5495 27.517C38.1694 27.0375 40.9419 27.9966 39.5495 27.517V27.517ZM14.6467 31.0583C15.3367 30.3328 16.2116 29.6934 17.1604 29.3368C18.4542 28.845 19.9205 28.8695 21.2636 28.5253C22.3726 28.2424 23.7527 27.7998 24.6152 27.0005C25.4038 26.2628 25.4901 25.1315 25.564 24.1109C25.6256 23.2502 25.6133 22.4017 25.6133 21.541C25.6133 20.9385 24.9109 20.5942 24.5659 20.1147C24.0114 19.3646 23.9868 18.2456 23.8759 17.348C23.8266 16.9545 23.8143 16.4504 23.4816 16.1799C23.1119 15.8848 22.8408 15.7249 22.656 15.2577C22.4095 14.6182 22.3233 13.9297 22.1261 13.2657C22.0029 12.8353 22.4342 12.4295 22.6067 12.0729C22.9271 11.4212 22.3726 10.4129 22.2617 9.73666C21.9167 7.72008 21.929 5.51906 23.383 3.92055C26.3033 0.69895 32.9942 1.71953 33.9553 6.24454C34.251 7.6586 34.0662 9.30629 33.6719 10.6835C33.4994 11.2737 33.3022 11.704 33.6472 12.282C34.1648 13.1181 33.943 13.6591 33.6965 14.5937C33.4994 15.3683 33.2529 15.7126 32.6615 16.1922C32.1686 16.5856 32.2425 17.5693 32.1563 18.135C32.0577 18.8235 31.9961 19.549 31.5771 20.1269C31.417 20.3483 30.5421 21.0369 30.5421 21.2705C30.5421 22.6231 30.4805 24.0002 30.7146 25.3405C31.035 27.2464 32.6368 27.7014 34.2387 28.3531C35.8652 28.9802 37.7505 28.7466 39.3277 29.5212C40.9542 30.3205 42.5191 31.7837 42.9873 33.5913C33.216 33.5913 23.4446 33.5913 13.6732 33.5913C13.5007 33.5913 13.3282 33.5913 13.1557 33.5913C13.3898 32.5707 13.9566 31.796 14.6467 31.0583C15.7803 29.8655 13.9197 31.8329 14.6467 31.0583V31.0583Z" fill="url(#paint0_linear_187_13676)" fill-opacity="0.7"/>
<path fill-rule="evenodd" clip-rule="evenodd" d="M14.2771 25.943C15.1397 25.5127 16.0761 25.4143 17.0249 25.3159C17.3699 25.279 17.5301 25.0454 17.2714 24.7134C16.7785 24.0863 15.078 23.9634 14.3634 23.6805C13.9198 23.5084 13.7966 23.3485 13.7596 22.8567C13.7473 22.6354 13.624 21.6517 13.7966 21.4918C13.9198 21.3689 14.6961 21.418 14.8686 21.3934C15.5709 21.3074 16.2856 21.1598 16.951 20.9016C17.2344 20.7909 17.5055 20.6557 17.7519 20.4835C18.0477 20.2622 17.5301 19.7212 17.3946 19.4261C16.9756 18.5038 16.7908 17.4955 16.7292 16.4873C16.606 14.5076 16.914 12.5156 16.5444 10.5482C15.9899 7.53563 13.661 6.02319 10.6914 6.02319C8.85542 6.02319 7.04408 6.6503 6.02135 8.24881C4.88772 10.0072 4.94933 12.1959 5.01094 14.2002C5.04791 15.3437 5.0972 16.4996 4.93701 17.6431C4.86308 18.135 4.75218 18.6145 4.57967 19.0818C4.44413 19.4383 3.75409 20.3237 4.02518 20.5081C5.04791 21.2336 6.77299 21.4795 8.0052 21.3811C8.04216 21.9837 8.15306 22.7583 7.93126 23.3239C7.58625 24.2093 5.01094 24.4429 4.23465 24.7011C2.06598 25.4266 0.464111 27.2341 0.464111 29.6319C2.71904 29.6319 4.96165 29.6319 7.21659 29.6319C8.22699 29.6319 9.2374 29.6319 10.2601 29.6319C10.4203 29.6319 11.0364 28.4884 11.2089 28.3039C12.0715 27.3448 13.1312 26.521 14.2771 25.943C15.3861 25.3897 12.4781 26.853 14.2771 25.943V25.943ZM9.18807 27.6645C7.17958 27.6645 5.17108 27.6645 3.16259 27.6645C4.03746 26.2136 6.23078 26.312 7.67246 25.7955C9.00324 25.316 9.85346 24.5044 9.989 23.0904C10.0013 22.9305 10.0136 19.4999 9.8781 19.4999C8.80608 19.463 7.68478 19.4876 6.61276 19.3277C7.46298 16.5857 6.64973 13.7575 7.10564 10.9909C7.43834 8.98661 8.71983 7.87995 10.7653 7.87995C12.7245 7.87995 14.1785 8.78987 14.5974 10.7573C15.1889 13.61 14.351 16.5242 15.2628 19.3523C14.5851 19.5245 13.8704 19.549 13.1681 19.5736C12.8231 19.5859 12.4657 19.5982 12.1207 19.6105C11.8989 19.6228 11.9728 20.004 11.9605 20.1884C11.8373 21.5287 11.3444 23.6437 12.4164 24.7257C11.2335 25.4635 9.95203 26.4841 9.18807 27.6645V27.6645Z" fill="url(#paint1_linear_187_13676)" fill-opacity="0.7"/>
<path fill-rule="evenodd" clip-rule="evenodd" d="M45.7845 29.6318C49.0745 29.6318 52.3768 29.6318 55.6668 29.6318C55.6668 27.2341 54.0526 25.4142 51.8839 24.701C50.8859 24.3813 48.9636 24.283 48.2489 23.4222C47.8916 22.9919 48.0888 21.8975 48.1257 21.3811C48.6679 21.4303 49.2594 21.3442 49.8138 21.2704C50.319 21.1966 50.8119 21.0983 51.2925 20.9261C51.5143 20.84 51.7361 20.754 51.9456 20.631C52.4261 20.3482 52.2043 20.299 51.9579 19.8809C50.6148 17.6307 51.2186 14.778 51.1569 12.3065C51.1077 10.253 50.5655 8.00281 48.6925 6.84696C47.0044 5.80179 44.503 5.7649 42.6917 6.50267C37.4672 8.59302 40.5477 15.5035 38.761 19.4629C38.4529 20.1269 38.0093 20.3605 38.7856 20.754C39.2169 20.9753 39.6851 21.1229 40.1534 21.2335C40.868 21.4057 41.6074 21.504 42.3467 21.5286C42.4699 21.5286 42.3837 23.0779 42.3467 23.2378C42.2111 23.8403 40.8927 24.0125 40.3998 24.1477C39.8946 24.283 39.0567 24.3199 38.8103 24.8486C38.4406 25.6356 40.0301 25.4388 40.4245 25.5126C41.6936 25.7462 42.8149 26.4471 43.8007 27.2464C44.5277 27.8366 45.5135 28.6727 45.7845 29.6318V29.6318ZM45.7352 26.2995C45.1068 25.7216 44.4537 25.156 43.7267 24.701C44.8111 23.619 44.3059 21.5163 44.1827 20.1637C44.1087 19.3891 43.9362 19.5858 43.1599 19.5612C42.4206 19.5366 41.5827 19.5735 40.8804 19.3399C41.7675 16.5978 41.0405 13.782 41.4965 10.9908C41.8415 8.88811 43.2831 7.85523 45.3779 7.85523C47.2755 7.85523 48.5816 8.80203 48.9759 10.6834C49.5797 13.5238 48.6556 16.4626 49.5304 19.2907C48.483 19.4505 47.3987 19.4137 46.339 19.4505C46.0802 19.4628 46.1049 22.5369 46.1295 22.8074C46.2158 24.2461 46.8812 25.1191 48.2489 25.6724C49.7399 26.2749 52.0688 26.1151 52.9806 27.6275C51.8346 27.6275 50.701 27.6275 49.5551 27.6275C48.865 27.6275 48.175 27.6275 47.4726 27.6275C46.5978 27.6398 46.376 26.8775 45.7352 26.2995C45.1191 25.7339 46.2281 26.7422 45.7352 26.2995V26.2995Z" fill="url(#paint2_linear_187_13676)" fill-opacity="0.7"/>
<defs>
<linearGradient id="paint0_linear_187_13676" x1="38.6442" y1="3.90286" x2="13.5351" y2="28.1957" gradientUnits="userSpaceOnUse">
<stop stop-color="#9D9E58"/>
<stop offset="1" stop-color="#A28C54"/>
</linearGradient>
<linearGradient id="paint1_linear_187_13676" x1="14.5196" y1="8.5403" x2="-1.47534" y2="20.3137" gradientUnits="userSpaceOnUse">
<stop stop-color="#9D9E58"/>
<stop offset="1" stop-color="#A28C54"/>
</linearGradient>
<linearGradient id="paint2_linear_187_13676" x1="52.3567" y1="8.51826" x2="36.3676" y2="20.2322" gradientUnits="userSpaceOnUse">
<stop stop-color="#9D9E58"/>
<stop offset="1" stop-color="#A28C54"/>
</linearGradient>
</defs>
</svg>
